M48
; DRILL file {KiCad 8.0.8} date 2025-03-09T11:33:23+0100
; FORMAT={-:-/ absolute / inch / decimal}
; #@! TF.CreationDate,2025-03-09T11:33:23+01:00
; #@! TF.GenerationSoftware,Kicad,Pcbnew,8.0.8
; #@! TF.FileFunction,Plated,1,2,PTH
FMAT,2
INCH
; #@! TA.AperFunction,Plated,PTH,ViaDrill
T1C0.0315
; #@! TA.AperFunction,Plated,PTH,ComponentDrill
T2C0.0315
%
G90
G05
T1
X6.2539Y-1.6732
X6.3539Y-1.4961
X6.4567Y-1.6732
X6.5539Y-1.4961
X6.6539Y-1.6732
X6.7539Y-1.4961
X6.8539Y-1.6732
X6.9539Y-1.4961
X7.0539Y-1.6732
X7.1539Y-1.4961
X7.2539Y-1.6732
X7.3539Y-1.4961
X7.4606Y-1.6732
X7.5539Y-1.4961
X7.6575Y-1.6732
X7.7539Y-1.4961
X7.8539Y-1.6732
X7.9539Y-1.4961
T2
X6.9402Y-1.839
X6.9402Y-1.939
X6.9402Y-2.039
X6.9402Y-2.139
X6.9402Y-2.239
X6.9402Y-2.339
X6.9402Y-2.439
X6.9402Y-2.539
X7.2402Y-1.839
X7.2402Y-1.939
X7.2402Y-2.039
X7.2402Y-2.139
X7.2402Y-2.239
X7.2402Y-2.339
X7.2402Y-2.439
X7.2402Y-2.539
M30
