%TF.GenerationSoftware,KiCad,Pcbnew,8.0.8*%
%TF.CreationDate,2025-03-09T11:33:26+01:00*%
%TF.ProjectId,HP 10529A reference card,48502031-3035-4323-9941-207265666572,rev?*%
%TF.SameCoordinates,Original*%
%TF.FileFunction,Copper,L2,Bot*%
%TF.FilePolarity,Positive*%
%FSLAX46Y46*%
G04 Gerber Fmt 4.6, Leading zero omitted, Abs format (unit mm)*
G04 Created by KiCad (PCBNEW 8.0.8) date 2025-03-09 11:33:26*
%MOMM*%
%LPD*%
G01*
G04 APERTURE LIST*
%TA.AperFunction,NonConductor*%
%ADD10C,0.200000*%
%TD*%
%TA.AperFunction,NonConductor*%
%ADD11C,0.300000*%
%TD*%
%ADD12C,0.250000*%
%TA.AperFunction,NonConductor*%
%ADD13C,0.250000*%
%TD*%
%ADD14C,0.300000*%
%TA.AperFunction,ConnectorPad*%
%ADD15R,1.780000X7.620000*%
%TD*%
%TA.AperFunction,ComponentPad*%
%ADD16R,1.600000X1.600000*%
%TD*%
%TA.AperFunction,ComponentPad*%
%ADD17O,1.600000X1.600000*%
%TD*%
%TA.AperFunction,ViaPad*%
%ADD18C,1.000000*%
%TD*%
%TA.AperFunction,Conductor*%
%ADD19C,0.500000*%
%TD*%
G04 APERTURE END LIST*
D10*
X180800000Y-39400000D02*
X183000000Y-39400000D01*
X183000000Y-41300000D01*
X180800000Y-41300000D01*
X180800000Y-39400000D01*
X170300000Y-39400000D02*
X172500000Y-39400000D01*
X172500000Y-41300000D01*
X170300000Y-41300000D01*
X170300000Y-39400000D01*
D11*
X202000000Y-47000000D02*
X200500000Y-49000000D01*
D10*
X190800000Y-39400000D02*
X193000000Y-39400000D01*
X193000000Y-41300000D01*
X190800000Y-41300000D01*
X190800000Y-39400000D01*
D11*
X200500000Y-49000000D02*
X199000000Y-47000000D01*
D10*
X165300000Y-39400000D02*
X167500000Y-39400000D01*
X167500000Y-41300000D01*
X165300000Y-41300000D01*
X165300000Y-39400000D01*
D11*
X171000000Y-50500000D02*
X173000000Y-50500000D01*
X173000000Y-52000000D01*
X171000000Y-52000000D01*
X171000000Y-50500000D01*
D10*
X160300000Y-39400000D02*
X162500000Y-39400000D01*
X162500000Y-41300000D01*
X160300000Y-41300000D01*
X160300000Y-39400000D01*
X185800000Y-39400000D02*
X188000000Y-39400000D01*
X188000000Y-41300000D01*
X185800000Y-41300000D01*
X185800000Y-39400000D01*
D11*
X199000000Y-47000000D02*
X202000000Y-47000000D01*
X200500000Y-47000000D02*
X200500000Y-45500000D01*
D10*
X195800000Y-39400000D02*
X198000000Y-39400000D01*
X198000000Y-41300000D01*
X195800000Y-41300000D01*
X195800000Y-39400000D01*
X175550000Y-39400000D02*
X177750000Y-39400000D01*
X177750000Y-41300000D01*
X175550000Y-41300000D01*
X175550000Y-39400000D01*
D12*
D13*
X166573622Y-40864619D02*
X167145050Y-40864619D01*
X166859336Y-40864619D02*
X166859336Y-39864619D01*
X166859336Y-39864619D02*
X166954574Y-40007476D01*
X166954574Y-40007476D02*
X167049812Y-40102714D01*
X167049812Y-40102714D02*
X167145050Y-40150333D01*
X165716479Y-40197952D02*
X165716479Y-40864619D01*
X165954574Y-39817000D02*
X166192669Y-40531285D01*
X166192669Y-40531285D02*
X165573622Y-40531285D01*
D12*
D13*
X176823622Y-40864619D02*
X177395050Y-40864619D01*
X177109336Y-40864619D02*
X177109336Y-39864619D01*
X177109336Y-39864619D02*
X177204574Y-40007476D01*
X177204574Y-40007476D02*
X177299812Y-40102714D01*
X177299812Y-40102714D02*
X177395050Y-40150333D01*
X176204574Y-39864619D02*
X176109336Y-39864619D01*
X176109336Y-39864619D02*
X176014098Y-39912238D01*
X176014098Y-39912238D02*
X175966479Y-39959857D01*
X175966479Y-39959857D02*
X175918860Y-40055095D01*
X175918860Y-40055095D02*
X175871241Y-40245571D01*
X175871241Y-40245571D02*
X175871241Y-40483666D01*
X175871241Y-40483666D02*
X175918860Y-40674142D01*
X175918860Y-40674142D02*
X175966479Y-40769380D01*
X175966479Y-40769380D02*
X176014098Y-40817000D01*
X176014098Y-40817000D02*
X176109336Y-40864619D01*
X176109336Y-40864619D02*
X176204574Y-40864619D01*
X176204574Y-40864619D02*
X176299812Y-40817000D01*
X176299812Y-40817000D02*
X176347431Y-40769380D01*
X176347431Y-40769380D02*
X176395050Y-40674142D01*
X176395050Y-40674142D02*
X176442669Y-40483666D01*
X176442669Y-40483666D02*
X176442669Y-40245571D01*
X176442669Y-40245571D02*
X176395050Y-40055095D01*
X176395050Y-40055095D02*
X176347431Y-39959857D01*
X176347431Y-39959857D02*
X176299812Y-39912238D01*
X176299812Y-39912238D02*
X176204574Y-39864619D01*
D12*
D13*
X186668860Y-39864619D02*
X186859336Y-39864619D01*
X186859336Y-39864619D02*
X186954574Y-39912238D01*
X186954574Y-39912238D02*
X187002193Y-39959857D01*
X187002193Y-39959857D02*
X187097431Y-40102714D01*
X187097431Y-40102714D02*
X187145050Y-40293190D01*
X187145050Y-40293190D02*
X187145050Y-40674142D01*
X187145050Y-40674142D02*
X187097431Y-40769380D01*
X187097431Y-40769380D02*
X187049812Y-40817000D01*
X187049812Y-40817000D02*
X186954574Y-40864619D01*
X186954574Y-40864619D02*
X186764098Y-40864619D01*
X186764098Y-40864619D02*
X186668860Y-40817000D01*
X186668860Y-40817000D02*
X186621241Y-40769380D01*
X186621241Y-40769380D02*
X186573622Y-40674142D01*
X186573622Y-40674142D02*
X186573622Y-40436047D01*
X186573622Y-40436047D02*
X186621241Y-40340809D01*
X186621241Y-40340809D02*
X186668860Y-40293190D01*
X186668860Y-40293190D02*
X186764098Y-40245571D01*
X186764098Y-40245571D02*
X186954574Y-40245571D01*
X186954574Y-40245571D02*
X187049812Y-40293190D01*
X187049812Y-40293190D02*
X187097431Y-40340809D01*
X187097431Y-40340809D02*
X187145050Y-40436047D01*
D12*
D13*
X161323622Y-43864619D02*
X161895050Y-43864619D01*
X161609336Y-43864619D02*
X161609336Y-42864619D01*
X161609336Y-42864619D02*
X161704574Y-43007476D01*
X161704574Y-43007476D02*
X161799812Y-43102714D01*
X161799812Y-43102714D02*
X161895050Y-43150333D01*
X160466479Y-43197952D02*
X160466479Y-43864619D01*
X160704574Y-42817000D02*
X160942669Y-43531285D01*
X160942669Y-43531285D02*
X160323622Y-43531285D01*
D14*
G36*
X167998345Y-50564528D02*
G01*
X167893652Y-50595244D01*
X167821199Y-50669217D01*
X167777794Y-50750642D01*
X167777794Y-50822449D01*
X167810638Y-50920017D01*
X167889736Y-50987588D01*
X167976803Y-51028101D01*
X168100927Y-51033475D01*
X168875421Y-51033475D01*
X168985857Y-51025384D01*
X169089010Y-50992516D01*
X169161619Y-50919701D01*
X169168293Y-50904026D01*
X169196503Y-50823426D01*
X169196503Y-50770181D01*
X169164082Y-50672613D01*
X169086003Y-50605042D01*
X169000058Y-50564528D01*
X167998345Y-50564528D01*
G37*
G36*
X167998345Y-51221053D02*
G01*
X167893652Y-51251850D01*
X167821199Y-51326017D01*
X167777794Y-51407655D01*
X167777794Y-51483370D01*
X167810723Y-51582277D01*
X167890025Y-51649974D01*
X167977316Y-51690000D01*
X168979029Y-51690000D01*
X169083214Y-51659203D01*
X169154444Y-51585036D01*
X169196503Y-51503398D01*
X169196503Y-51427683D01*
X169164082Y-51328775D01*
X169086003Y-51261079D01*
X169000058Y-51221053D01*
X167998345Y-51221053D01*
G37*
G36*
X166527832Y-49782951D02*
G01*
X166423647Y-49813990D01*
X166352417Y-49888739D01*
X166310358Y-49971018D01*
X166310358Y-51482393D01*
X166342779Y-51581697D01*
X166420858Y-51649730D01*
X166506803Y-51690000D01*
X166586817Y-51690000D01*
X166691002Y-51658961D01*
X166762232Y-51584212D01*
X166804291Y-51501933D01*
X166804291Y-49990558D01*
X166771870Y-49891253D01*
X166693791Y-49823221D01*
X166607846Y-49782951D01*
X166527832Y-49782951D01*
G37*
G36*
X165421979Y-49789474D02*
G01*
X165514322Y-49838150D01*
X165520165Y-49841850D01*
X165576545Y-49923719D01*
X165632107Y-50023536D01*
X165678205Y-50111204D01*
X165731548Y-50215771D01*
X165776309Y-50305285D01*
X165825146Y-50404305D01*
X165879602Y-50499400D01*
X165926798Y-50588067D01*
X165975582Y-50689865D01*
X166013021Y-50781620D01*
X166042972Y-50878472D01*
X166057494Y-50985115D01*
X166057494Y-51044221D01*
X166055835Y-51083796D01*
X166037172Y-51184938D01*
X166002645Y-51278657D01*
X165951321Y-51374926D01*
X165890189Y-51448772D01*
X165809897Y-51527232D01*
X165725296Y-51590308D01*
X165618090Y-51645692D01*
X165504681Y-51678923D01*
X165385069Y-51690000D01*
X165314287Y-51690000D01*
X165273022Y-51688420D01*
X165167825Y-51670645D01*
X165070665Y-51637763D01*
X164971150Y-51588883D01*
X164893252Y-51530364D01*
X164810485Y-51453373D01*
X164743947Y-51372112D01*
X164685524Y-51268963D01*
X164650470Y-51159666D01*
X164638785Y-51044221D01*
X164638785Y-50994884D01*
X165141437Y-50994884D01*
X165141437Y-51062295D01*
X165158026Y-51099504D01*
X165223233Y-51186170D01*
X165319929Y-51221053D01*
X165390711Y-51221053D01*
X165438881Y-51200345D01*
X165521179Y-51141109D01*
X165557919Y-51048129D01*
X165557919Y-50980718D01*
X165542003Y-50943509D01*
X165477656Y-50856844D01*
X165379427Y-50821960D01*
X165305568Y-50821960D01*
X165267100Y-50837699D01*
X165177501Y-50900445D01*
X165141437Y-50994884D01*
X164638785Y-50994884D01*
X164638785Y-50985115D01*
X164643593Y-50912417D01*
X164666482Y-50813084D01*
X164708220Y-50716603D01*
X164768807Y-50622973D01*
X164835742Y-50544989D01*
X164863878Y-50520086D01*
X164945858Y-50455016D01*
X165036897Y-50397377D01*
X165134870Y-50355604D01*
X165237351Y-50339337D01*
X165184989Y-50238371D01*
X165140895Y-50148398D01*
X165102968Y-50047222D01*
X165102968Y-49971018D01*
X165145027Y-49888739D01*
X165216257Y-49813990D01*
X165320442Y-49782951D01*
X165379427Y-49782951D01*
X165421979Y-49789474D01*
G37*
G36*
X163554782Y-49823221D02*
G01*
X163632861Y-49891253D01*
X163665282Y-49990558D01*
X163665282Y-51501933D01*
X163623223Y-51584212D01*
X163551993Y-51658961D01*
X163447808Y-51690000D01*
X163386772Y-51690000D01*
X163338837Y-51676948D01*
X163245721Y-51623565D01*
X163191024Y-51552319D01*
X163170708Y-51454488D01*
X163165707Y-51348060D01*
X163165707Y-51127264D01*
X162922075Y-51127264D01*
X162871756Y-51124676D01*
X162765407Y-51103973D01*
X162663184Y-51067638D01*
X162567141Y-51021263D01*
X162492008Y-50961522D01*
X162412179Y-50884035D01*
X162348003Y-50803423D01*
X162291653Y-50702564D01*
X162257843Y-50597205D01*
X162246573Y-50487348D01*
X162246573Y-50432149D01*
X162749224Y-50432149D01*
X162749224Y-50500537D01*
X162765814Y-50537517D01*
X162831021Y-50623649D01*
X162927717Y-50658318D01*
X163165707Y-50658318D01*
X163165707Y-50251898D01*
X163031838Y-50251898D01*
X162913869Y-50257759D01*
X162875280Y-50274269D01*
X162785401Y-50338361D01*
X162749224Y-50432149D01*
X162246573Y-50432149D01*
X162246573Y-50422868D01*
X162249390Y-50374277D01*
X162271930Y-50272229D01*
X162311488Y-50174839D01*
X162361977Y-50083859D01*
X162424809Y-50013333D01*
X162506233Y-49938400D01*
X162590863Y-49878160D01*
X162696651Y-49825266D01*
X162807055Y-49793530D01*
X162922075Y-49782951D01*
X163468837Y-49782951D01*
X163554782Y-49823221D01*
G37*
G36*
X161724943Y-49782951D02*
G01*
X161620758Y-49813990D01*
X161549528Y-49888739D01*
X161507469Y-49971018D01*
X161507469Y-51482393D01*
X161539890Y-51581697D01*
X161617969Y-51649730D01*
X161703914Y-51690000D01*
X161783928Y-51690000D01*
X161888113Y-51658961D01*
X161959343Y-51584212D01*
X162001402Y-51501933D01*
X162001402Y-49990558D01*
X161968981Y-49891253D01*
X161890902Y-49823221D01*
X161804957Y-49782951D01*
X161724943Y-49782951D01*
G37*
G36*
X160978146Y-49782951D02*
G01*
X160874261Y-49821971D01*
X160791987Y-49884772D01*
X160708532Y-49963966D01*
X160656039Y-50019378D01*
X159759472Y-50871297D01*
X159759472Y-50077020D01*
X159748252Y-49970163D01*
X159708807Y-49876517D01*
X159631670Y-49805458D01*
X159579954Y-49782951D01*
X159536356Y-49782951D01*
X159477372Y-49782951D01*
X159374671Y-49813990D01*
X159303111Y-49888739D01*
X159259898Y-49971018D01*
X159259898Y-51482393D01*
X159291811Y-51580048D01*
X159368667Y-51648448D01*
X159453265Y-51690000D01*
X159536356Y-51690000D01*
X159641726Y-51650980D01*
X159723904Y-51588179D01*
X159806644Y-51508985D01*
X159858464Y-51453572D01*
X160755030Y-50601653D01*
X160755030Y-51366622D01*
X160762374Y-51473466D01*
X160791295Y-51571099D01*
X160847867Y-51636266D01*
X160939148Y-51683650D01*
X160978146Y-51690000D01*
X161037131Y-51690000D01*
X161141316Y-51658961D01*
X161212546Y-51584212D01*
X161254605Y-51501933D01*
X161254605Y-49990558D01*
X161223115Y-49892903D01*
X161147278Y-49824503D01*
X161063802Y-49782951D01*
X160978146Y-49782951D01*
G37*
G36*
X168675675Y-53183221D02*
G01*
X168753754Y-53251253D01*
X168786175Y-53350558D01*
X168786175Y-54861933D01*
X168744116Y-54944212D01*
X168672886Y-55018961D01*
X168568701Y-55050000D01*
X168507665Y-55050000D01*
X168459730Y-55036948D01*
X168366615Y-54983565D01*
X168311917Y-54912319D01*
X168291601Y-54814488D01*
X168286601Y-54708060D01*
X168286601Y-54487264D01*
X168042968Y-54487264D01*
X167992649Y-54484676D01*
X167886300Y-54463973D01*
X167784077Y-54427638D01*
X167688035Y-54381263D01*
X167612901Y-54321522D01*
X167533072Y-54244035D01*
X167468896Y-54163423D01*
X167412546Y-54062564D01*
X167378736Y-53957205D01*
X167367466Y-53847348D01*
X167367466Y-53792149D01*
X167870118Y-53792149D01*
X167870118Y-53860537D01*
X167886707Y-53897517D01*
X167951914Y-53983649D01*
X168048610Y-54018318D01*
X168286601Y-54018318D01*
X168286601Y-53611898D01*
X168152731Y-53611898D01*
X168034762Y-53617759D01*
X167996173Y-53634269D01*
X167906294Y-53698361D01*
X167870118Y-53792149D01*
X167367466Y-53792149D01*
X167367466Y-53782868D01*
X167370283Y-53734277D01*
X167392823Y-53632229D01*
X167432381Y-53534839D01*
X167482871Y-53443859D01*
X167545702Y-53373333D01*
X167627127Y-53298400D01*
X167711757Y-53238160D01*
X167817544Y-53185266D01*
X167927948Y-53153530D01*
X168042968Y-53142951D01*
X168589730Y-53142951D01*
X168675675Y-53183221D01*
G37*
G36*
X166247859Y-53164253D02*
G01*
X166330362Y-53225505D01*
X166350155Y-53258356D01*
X166406773Y-53357045D01*
X166459406Y-53453033D01*
X166518563Y-53564163D01*
X166567212Y-53657449D01*
X166619530Y-53759252D01*
X166675518Y-53869574D01*
X166735176Y-53988413D01*
X166798502Y-54115771D01*
X166842759Y-54205408D01*
X166876609Y-54270243D01*
X166923289Y-54360354D01*
X166977886Y-54467172D01*
X167033848Y-54579271D01*
X167082985Y-54682368D01*
X167122295Y-54785729D01*
X167122295Y-54838485D01*
X167109472Y-54890265D01*
X167079454Y-54936282D01*
X167003118Y-55014902D01*
X166899179Y-55050000D01*
X166851478Y-55050000D01*
X166752487Y-55020690D01*
X166693799Y-54976452D01*
X166637381Y-54885210D01*
X166593864Y-54796733D01*
X166553991Y-54706106D01*
X165715896Y-54706106D01*
X165655372Y-54817480D01*
X165637476Y-54859034D01*
X165584021Y-54949862D01*
X165505481Y-55022524D01*
X165404046Y-55050000D01*
X165366091Y-55050000D01*
X165299413Y-55031437D01*
X165251686Y-54995893D01*
X165175160Y-54923237D01*
X165133743Y-54831158D01*
X165133743Y-54760327D01*
X165171490Y-54683855D01*
X165220857Y-54588203D01*
X165270590Y-54493013D01*
X165331213Y-54377721D01*
X165377680Y-54289693D01*
X165405478Y-54237159D01*
X165973889Y-54237159D01*
X166303178Y-54237159D01*
X166286907Y-54203387D01*
X166236238Y-54099519D01*
X166190293Y-54008119D01*
X166138534Y-53915247D01*
X165973889Y-54237159D01*
X165405478Y-54237159D01*
X165428987Y-54192730D01*
X165485134Y-54086834D01*
X165546123Y-53972003D01*
X165611951Y-53848239D01*
X165682621Y-53715541D01*
X165758131Y-53573908D01*
X165838481Y-53423342D01*
X165881986Y-53328053D01*
X165938668Y-53241800D01*
X166020921Y-53170333D01*
X166124685Y-53142951D01*
X166172899Y-53142951D01*
X166247859Y-53164253D01*
G37*
G36*
X163938150Y-53142951D02*
G01*
X163840697Y-53142951D01*
X163733713Y-53150473D01*
X163625106Y-53173039D01*
X163514877Y-53210649D01*
X163421779Y-53253482D01*
X163327554Y-53306762D01*
X163251363Y-53356908D01*
X163171934Y-53429873D01*
X163118528Y-53515225D01*
X163111852Y-53554745D01*
X163111852Y-53596266D01*
X163136761Y-53696061D01*
X163211491Y-53769766D01*
X163309688Y-53810665D01*
X163322658Y-53814131D01*
X163357536Y-53820481D01*
X163458164Y-53797761D01*
X163549574Y-53742119D01*
X163597065Y-53701779D01*
X163687722Y-53650606D01*
X163789110Y-53619007D01*
X163866855Y-53611898D01*
X163914556Y-53611898D01*
X164022141Y-53624333D01*
X164120497Y-53661639D01*
X164209625Y-53723816D01*
X164278676Y-53796906D01*
X164331039Y-53871772D01*
X164370308Y-53964630D01*
X164387587Y-54061976D01*
X164388485Y-54090614D01*
X164388485Y-54114061D01*
X164379506Y-54212273D01*
X164345029Y-54317786D01*
X164284694Y-54409835D01*
X164198501Y-54488420D01*
X164106921Y-54543623D01*
X164020728Y-54581053D01*
X163914556Y-54581053D01*
X163866855Y-54581053D01*
X163759362Y-54566756D01*
X163664017Y-54530044D01*
X163568864Y-54470738D01*
X163485763Y-54400314D01*
X163384441Y-54375122D01*
X163359074Y-54372958D01*
X163256032Y-54392374D01*
X163169760Y-54458580D01*
X163120271Y-54547697D01*
X163111852Y-54571772D01*
X163111852Y-54638206D01*
X163151222Y-54740550D01*
X163225631Y-54815539D01*
X163320118Y-54882011D01*
X163420511Y-54938953D01*
X163514999Y-54985519D01*
X163622258Y-55016689D01*
X163727064Y-55039358D01*
X163832863Y-55049937D01*
X163840697Y-55050000D01*
X163938150Y-55050000D01*
X164057334Y-55041663D01*
X164174138Y-55016655D01*
X164288564Y-54974974D01*
X164400610Y-54916620D01*
X164488534Y-54857933D01*
X164574936Y-54788576D01*
X164659814Y-54708548D01*
X164725568Y-54618851D01*
X164780178Y-54529583D01*
X164823642Y-54440744D01*
X164861089Y-54334705D01*
X164882487Y-54229283D01*
X164888059Y-54141905D01*
X164888059Y-54051046D01*
X164879344Y-53936319D01*
X164853197Y-53824168D01*
X164809620Y-53714592D01*
X164748612Y-53607593D01*
X164687255Y-53523848D01*
X164614742Y-53441752D01*
X164531074Y-53361304D01*
X164436536Y-53298400D01*
X164342699Y-53246157D01*
X164249564Y-53204576D01*
X164138728Y-53168753D01*
X164028901Y-53148282D01*
X163938150Y-53142951D01*
G37*
G36*
X162592787Y-53142951D02*
G01*
X162488602Y-53173909D01*
X162417372Y-53248464D01*
X162375313Y-53330530D01*
X162369671Y-53449232D01*
X162379929Y-54025645D01*
X162386084Y-54025645D01*
X162333942Y-53930698D01*
X162255627Y-53849602D01*
X162173834Y-53774875D01*
X162125526Y-53733042D01*
X162021372Y-53633173D01*
X161926639Y-53543128D01*
X161841328Y-53462906D01*
X161765439Y-53392506D01*
X161678910Y-53313921D01*
X161594302Y-53240248D01*
X161513366Y-53179126D01*
X161500289Y-53174214D01*
X161426430Y-53142951D01*
X161399245Y-53142951D01*
X161296742Y-53165232D01*
X161217026Y-53232073D01*
X161168754Y-53319906D01*
X161164333Y-53331507D01*
X161164333Y-53407222D01*
X161204118Y-53505435D01*
X161268152Y-53582623D01*
X161348900Y-53660632D01*
X161405400Y-53709595D01*
X161804444Y-54096475D01*
X161730471Y-54167296D01*
X161628460Y-54265249D01*
X161537186Y-54353266D01*
X161456651Y-54431349D01*
X161365974Y-54520005D01*
X161294387Y-54591000D01*
X161222800Y-54664376D01*
X161193568Y-54699755D01*
X161164333Y-54785729D01*
X161164333Y-54842393D01*
X161196754Y-54941697D01*
X161274833Y-55009730D01*
X161360777Y-55050000D01*
X161440278Y-55050000D01*
X161536521Y-55015172D01*
X161619997Y-54953256D01*
X161705714Y-54873685D01*
X161774183Y-54802337D01*
X161848839Y-54732518D01*
X161951793Y-54635704D01*
X162043909Y-54548386D01*
X162125188Y-54470565D01*
X162216703Y-54381576D01*
X162288951Y-54309471D01*
X162361199Y-54232970D01*
X162390700Y-54191730D01*
X162386084Y-54174633D01*
X162380442Y-54172679D01*
X162369671Y-54172679D01*
X162375313Y-54774494D01*
X162375313Y-54842393D01*
X162407734Y-54941697D01*
X162485813Y-55009730D01*
X162571758Y-55050000D01*
X162651772Y-55050000D01*
X162755956Y-55018961D01*
X162827187Y-54944212D01*
X162869245Y-54861933D01*
X162869245Y-53350558D01*
X162836824Y-53251253D01*
X162758745Y-53183221D01*
X162672801Y-53142951D01*
X162592787Y-53142951D01*
G37*
G36*
X160343164Y-53142951D02*
G01*
X160245711Y-53142951D01*
X160127144Y-53149117D01*
X160024951Y-53167612D01*
X159926419Y-53204775D01*
X159841100Y-53267797D01*
X159802557Y-53318318D01*
X159777522Y-53413086D01*
X159777424Y-53418457D01*
X159777424Y-53435554D01*
X159802091Y-53533655D01*
X159876093Y-53615708D01*
X159973335Y-53670908D01*
X159986178Y-53676378D01*
X160046189Y-53688590D01*
X160152721Y-53664653D01*
X160259631Y-53632825D01*
X160298541Y-53620690D01*
X160335983Y-53620690D01*
X160417271Y-53683255D01*
X160418561Y-53698360D01*
X160418561Y-53720830D01*
X160339672Y-53792722D01*
X160233082Y-53838174D01*
X160123688Y-53875509D01*
X160059525Y-53895219D01*
X159948407Y-53947300D01*
X159856124Y-54008897D01*
X159782673Y-54080011D01*
X159719393Y-54177911D01*
X159683233Y-54289515D01*
X159673816Y-54392986D01*
X159673816Y-54449651D01*
X159683195Y-54554866D01*
X159711333Y-54652830D01*
X159758228Y-54743543D01*
X159823882Y-54827006D01*
X159908295Y-54903217D01*
X160011465Y-54972178D01*
X160057986Y-54997732D01*
X160160054Y-55031573D01*
X160265241Y-55048723D01*
X160301618Y-55050000D01*
X160354961Y-55050000D01*
X160462486Y-55042099D01*
X160568293Y-55018397D01*
X160672382Y-54978893D01*
X160774753Y-54923589D01*
X160832480Y-54884891D01*
X160895994Y-54804411D01*
X160918136Y-54732484D01*
X160918136Y-54675819D01*
X160888924Y-54581778D01*
X160810823Y-54508005D01*
X160710407Y-54456489D01*
X160647319Y-54456489D01*
X160547710Y-54489163D01*
X160447857Y-54532916D01*
X160363167Y-54572260D01*
X160313928Y-54572260D01*
X160218607Y-54528175D01*
X160173391Y-54447208D01*
X160173391Y-54404221D01*
X160224457Y-54314439D01*
X160315242Y-54265957D01*
X160413120Y-54235566D01*
X160514189Y-54214149D01*
X160536531Y-54210293D01*
X160646466Y-54165015D01*
X160737768Y-54109170D01*
X160822735Y-54028210D01*
X160880870Y-53932033D01*
X160912173Y-53820641D01*
X160918136Y-53737927D01*
X160918136Y-53692498D01*
X160906289Y-53580207D01*
X160870748Y-53476709D01*
X160811513Y-53382004D01*
X160728584Y-53296092D01*
X160641376Y-53231215D01*
X160581154Y-53195219D01*
X160481501Y-53161378D01*
X160378727Y-53144227D01*
X160343164Y-53142951D01*
G37*
G36*
X167439390Y-56508294D02*
G01*
X167549650Y-56528811D01*
X167660523Y-56564714D01*
X167753385Y-56606388D01*
X167846673Y-56658748D01*
X167940387Y-56721793D01*
X168024175Y-56802126D01*
X168096792Y-56884123D01*
X168158237Y-56967784D01*
X168219333Y-57074700D01*
X168262973Y-57184215D01*
X168289157Y-57296331D01*
X168297885Y-57411046D01*
X168297885Y-57501905D01*
X168292312Y-57589283D01*
X168270915Y-57694705D01*
X168233468Y-57800744D01*
X168190003Y-57889583D01*
X168135394Y-57978851D01*
X168069640Y-58068548D01*
X167985435Y-58148576D01*
X167899514Y-58217933D01*
X167811879Y-58276620D01*
X167699923Y-58334974D01*
X167585287Y-58376655D01*
X167467971Y-58401663D01*
X167347976Y-58410000D01*
X167256165Y-58410000D01*
X167163863Y-58404657D01*
X167052738Y-58384140D01*
X166941216Y-58348237D01*
X166847979Y-58306563D01*
X166754465Y-58254203D01*
X166660676Y-58191158D01*
X166576888Y-58110825D01*
X166504271Y-58028828D01*
X166442826Y-57945167D01*
X166381730Y-57838251D01*
X166338090Y-57728736D01*
X166311906Y-57616620D01*
X166303178Y-57501905D01*
X166303178Y-57433517D01*
X166802752Y-57433517D01*
X166802752Y-57479434D01*
X166809232Y-57545445D01*
X166836604Y-57639658D01*
X166846599Y-57658200D01*
X166900209Y-57742085D01*
X166972542Y-57823321D01*
X167053601Y-57883364D01*
X167159202Y-57926631D01*
X167276681Y-57941053D01*
X167324382Y-57941053D01*
X167392585Y-57934695D01*
X167492103Y-57907836D01*
X167596166Y-57846190D01*
X167678698Y-57775922D01*
X167747774Y-57683047D01*
X167787545Y-57578438D01*
X167798311Y-57479434D01*
X167798311Y-57433517D01*
X167791831Y-57367506D01*
X167764459Y-57273293D01*
X167754464Y-57254750D01*
X167700854Y-57170866D01*
X167628521Y-57089630D01*
X167547462Y-57029587D01*
X167441861Y-56986320D01*
X167324382Y-56971898D01*
X167276681Y-56971898D01*
X167214125Y-56977380D01*
X167112037Y-57005115D01*
X167006929Y-57066761D01*
X166923567Y-57137029D01*
X166853796Y-57229903D01*
X166813626Y-57334512D01*
X166802752Y-57433517D01*
X166303178Y-57433517D01*
X166303178Y-57411046D01*
X166308750Y-57323667D01*
X166330148Y-57218246D01*
X166367595Y-57112207D01*
X166411059Y-57023368D01*
X166465669Y-56934100D01*
X166531423Y-56844403D01*
X166616350Y-56764375D01*
X166702895Y-56695018D01*
X166791060Y-56636331D01*
X166903542Y-56577977D01*
X167018553Y-56536296D01*
X167136094Y-56511288D01*
X167256165Y-56502951D01*
X167347976Y-56502951D01*
X167439390Y-56508294D01*
G37*
G36*
X165781036Y-56502951D02*
G01*
X165677150Y-56541971D01*
X165594876Y-56604772D01*
X165511421Y-56683966D01*
X165458928Y-56739378D01*
X164562362Y-57591297D01*
X164562362Y-56797020D01*
X164551142Y-56690163D01*
X164511697Y-56596517D01*
X164434560Y-56525458D01*
X164382843Y-56502951D01*
X164339246Y-56502951D01*
X164280261Y-56502951D01*
X164177561Y-56533990D01*
X164106000Y-56608739D01*
X164062787Y-56691018D01*
X164062787Y-58202393D01*
X164094700Y-58300048D01*
X164171556Y-58368448D01*
X164256154Y-58410000D01*
X164339246Y-58410000D01*
X164444616Y-58370980D01*
X164526793Y-58308179D01*
X164609533Y-58228985D01*
X164661353Y-58173572D01*
X165557920Y-57321653D01*
X165557920Y-58086622D01*
X165565263Y-58193466D01*
X165594184Y-58291099D01*
X165650756Y-58356266D01*
X165742037Y-58403650D01*
X165781036Y-58410000D01*
X165840020Y-58410000D01*
X165944205Y-58378961D01*
X166015435Y-58304212D01*
X166057494Y-58221933D01*
X166057494Y-56710558D01*
X166026004Y-56612903D01*
X165950168Y-56544503D01*
X165866692Y-56502951D01*
X165781036Y-56502951D01*
G37*
G36*
X163540645Y-56502951D02*
G01*
X163442905Y-56532684D01*
X163369287Y-56605499D01*
X163335994Y-56658290D01*
X163317529Y-56760383D01*
X163323171Y-57950823D01*
X163333429Y-57950823D01*
X162618946Y-57941053D01*
X162514253Y-57971850D01*
X162441799Y-58046017D01*
X162398394Y-58127655D01*
X162398394Y-58203370D01*
X162431323Y-58302277D01*
X162510625Y-58369974D01*
X162597916Y-58410000D01*
X163599629Y-58410000D01*
X163703814Y-58378961D01*
X163775045Y-58304212D01*
X163817103Y-58221933D01*
X163817103Y-56710558D01*
X163784682Y-56611253D01*
X163706603Y-56543221D01*
X163620659Y-56502951D01*
X163540645Y-56502951D01*
G37*
G36*
X161876765Y-56502951D02*
G01*
X161773895Y-56540923D01*
X161693256Y-56602037D01*
X161611863Y-56679104D01*
X161560812Y-56733028D01*
X161155613Y-57113070D01*
X161081622Y-57042619D01*
X160979276Y-56945465D01*
X160887297Y-56858538D01*
X160805688Y-56781838D01*
X160713003Y-56695479D01*
X160638751Y-56627301D01*
X160561935Y-56559123D01*
X160524734Y-56531284D01*
X160434975Y-56502951D01*
X160375990Y-56502951D01*
X160273290Y-56533990D01*
X160201729Y-56608739D01*
X160158516Y-56691018D01*
X160158516Y-56767222D01*
X160194493Y-56862130D01*
X160261549Y-56943703D01*
X160337547Y-57016125D01*
X160376503Y-57049567D01*
X160908904Y-57561500D01*
X160908904Y-58202393D01*
X160941833Y-58301697D01*
X161021135Y-58369730D01*
X161108426Y-58410000D01*
X161185362Y-58410000D01*
X161286624Y-58376912D01*
X161361715Y-58306960D01*
X161373087Y-58292763D01*
X161403501Y-58197661D01*
X161408478Y-58112023D01*
X161408478Y-57556127D01*
X161495060Y-57473238D01*
X161576055Y-57395544D01*
X161651465Y-57323044D01*
X161754106Y-57224033D01*
X161844179Y-57136708D01*
X161921684Y-57061070D01*
X162005472Y-56978397D01*
X162078787Y-56904273D01*
X162123475Y-56853196D01*
X162153223Y-56767222D01*
X162153223Y-56710558D01*
X162120802Y-56611253D01*
X162042723Y-56543221D01*
X161956779Y-56502951D01*
X161876765Y-56502951D01*
G37*
D12*
D13*
X171573622Y-43864619D02*
X172145050Y-43864619D01*
X171859336Y-43864619D02*
X171859336Y-42864619D01*
X171859336Y-42864619D02*
X171954574Y-43007476D01*
X171954574Y-43007476D02*
X172049812Y-43102714D01*
X172049812Y-43102714D02*
X172145050Y-43150333D01*
X170954574Y-42864619D02*
X170859336Y-42864619D01*
X170859336Y-42864619D02*
X170764098Y-42912238D01*
X170764098Y-42912238D02*
X170716479Y-42959857D01*
X170716479Y-42959857D02*
X170668860Y-43055095D01*
X170668860Y-43055095D02*
X170621241Y-43245571D01*
X170621241Y-43245571D02*
X170621241Y-43483666D01*
X170621241Y-43483666D02*
X170668860Y-43674142D01*
X170668860Y-43674142D02*
X170716479Y-43769380D01*
X170716479Y-43769380D02*
X170764098Y-43817000D01*
X170764098Y-43817000D02*
X170859336Y-43864619D01*
X170859336Y-43864619D02*
X170954574Y-43864619D01*
X170954574Y-43864619D02*
X171049812Y-43817000D01*
X171049812Y-43817000D02*
X171097431Y-43769380D01*
X171097431Y-43769380D02*
X171145050Y-43674142D01*
X171145050Y-43674142D02*
X171192669Y-43483666D01*
X171192669Y-43483666D02*
X171192669Y-43245571D01*
X171192669Y-43245571D02*
X171145050Y-43055095D01*
X171145050Y-43055095D02*
X171097431Y-42959857D01*
X171097431Y-42959857D02*
X171049812Y-42912238D01*
X171049812Y-42912238D02*
X170954574Y-42864619D01*
D12*
D13*
X191668860Y-40197952D02*
X191668860Y-40864619D01*
X191906955Y-39817000D02*
X192145050Y-40531285D01*
X192145050Y-40531285D02*
X191526003Y-40531285D01*
D12*
D13*
X176704574Y-43293190D02*
X176799812Y-43245571D01*
X176799812Y-43245571D02*
X176847431Y-43197952D01*
X176847431Y-43197952D02*
X176895050Y-43102714D01*
X176895050Y-43102714D02*
X176895050Y-43055095D01*
X176895050Y-43055095D02*
X176847431Y-42959857D01*
X176847431Y-42959857D02*
X176799812Y-42912238D01*
X176799812Y-42912238D02*
X176704574Y-42864619D01*
X176704574Y-42864619D02*
X176514098Y-42864619D01*
X176514098Y-42864619D02*
X176418860Y-42912238D01*
X176418860Y-42912238D02*
X176371241Y-42959857D01*
X176371241Y-42959857D02*
X176323622Y-43055095D01*
X176323622Y-43055095D02*
X176323622Y-43102714D01*
X176323622Y-43102714D02*
X176371241Y-43197952D01*
X176371241Y-43197952D02*
X176418860Y-43245571D01*
X176418860Y-43245571D02*
X176514098Y-43293190D01*
X176514098Y-43293190D02*
X176704574Y-43293190D01*
X176704574Y-43293190D02*
X176799812Y-43340809D01*
X176799812Y-43340809D02*
X176847431Y-43388428D01*
X176847431Y-43388428D02*
X176895050Y-43483666D01*
X176895050Y-43483666D02*
X176895050Y-43674142D01*
X176895050Y-43674142D02*
X176847431Y-43769380D01*
X176847431Y-43769380D02*
X176799812Y-43817000D01*
X176799812Y-43817000D02*
X176704574Y-43864619D01*
X176704574Y-43864619D02*
X176514098Y-43864619D01*
X176514098Y-43864619D02*
X176418860Y-43817000D01*
X176418860Y-43817000D02*
X176371241Y-43769380D01*
X176371241Y-43769380D02*
X176323622Y-43674142D01*
X176323622Y-43674142D02*
X176323622Y-43483666D01*
X176323622Y-43483666D02*
X176371241Y-43388428D01*
X176371241Y-43388428D02*
X176418860Y-43340809D01*
X176418860Y-43340809D02*
X176514098Y-43293190D01*
D14*
G36*
X163270226Y-45752951D02*
G01*
X163220473Y-45752951D01*
X163116262Y-45780831D01*
X163037722Y-45854562D01*
X162985998Y-45946725D01*
X162969148Y-45988890D01*
X162505990Y-46879888D01*
X162455308Y-46779878D01*
X162399433Y-46671579D01*
X162338364Y-46554991D01*
X162289155Y-46462111D01*
X162237025Y-46364568D01*
X162181973Y-46262362D01*
X162124000Y-46155494D01*
X162063106Y-46043963D01*
X161999291Y-45927770D01*
X161955124Y-45847718D01*
X161877053Y-45779697D01*
X161773041Y-45752951D01*
X161737651Y-45752951D01*
X161633881Y-45789510D01*
X161556617Y-45869527D01*
X161509406Y-45943949D01*
X161502738Y-45969839D01*
X161502738Y-46043600D01*
X162296723Y-47553998D01*
X162370551Y-47622630D01*
X162466255Y-47658343D01*
X162493680Y-47660000D01*
X162535226Y-47660000D01*
X162639330Y-47626958D01*
X162717048Y-47548943D01*
X162773308Y-47453490D01*
X162786552Y-47425038D01*
X162836874Y-47331908D01*
X162890326Y-47231489D01*
X162946906Y-47123779D01*
X163006614Y-47008779D01*
X163069451Y-46886490D01*
X163135417Y-46756910D01*
X163181132Y-46666473D01*
X163228237Y-46572796D01*
X163276733Y-46475880D01*
X163326620Y-46375723D01*
X163377897Y-46272326D01*
X163430564Y-46165689D01*
X163484622Y-46055812D01*
X163491290Y-46018688D01*
X163491290Y-45966420D01*
X163458205Y-45870196D01*
X163377181Y-45797839D01*
X163318439Y-45765163D01*
X163270226Y-45752951D01*
G37*
G36*
X160307145Y-45752951D02*
G01*
X160209692Y-45752951D01*
X160102708Y-45760473D01*
X159994101Y-45783039D01*
X159883872Y-45820649D01*
X159790774Y-45863482D01*
X159696549Y-45916762D01*
X159620358Y-45966908D01*
X159540929Y-46039873D01*
X159487523Y-46125225D01*
X159480847Y-46164745D01*
X159480847Y-46206266D01*
X159505756Y-46306061D01*
X159580486Y-46379766D01*
X159678683Y-46420665D01*
X159691653Y-46424131D01*
X159726531Y-46430481D01*
X159827159Y-46407761D01*
X159918569Y-46352119D01*
X159966060Y-46311779D01*
X160056717Y-46260606D01*
X160158105Y-46229007D01*
X160235850Y-46221898D01*
X160283551Y-46221898D01*
X160391136Y-46234333D01*
X160489492Y-46271639D01*
X160578620Y-46333816D01*
X160647671Y-46406906D01*
X160700034Y-46481772D01*
X160739303Y-46574630D01*
X160756582Y-46671976D01*
X160757480Y-46700614D01*
X160757480Y-46724061D01*
X160748501Y-46822273D01*
X160714024Y-46927786D01*
X160653689Y-47019835D01*
X160567496Y-47098420D01*
X160475916Y-47153623D01*
X160389723Y-47191053D01*
X160283551Y-47191053D01*
X160235850Y-47191053D01*
X160128357Y-47176756D01*
X160033012Y-47140044D01*
X159937859Y-47080738D01*
X159854758Y-47010314D01*
X159753436Y-46985122D01*
X159728069Y-46982958D01*
X159625027Y-47002374D01*
X159538754Y-47068580D01*
X159489266Y-47157697D01*
X159480847Y-47181772D01*
X159480847Y-47248206D01*
X159520217Y-47350550D01*
X159594626Y-47425539D01*
X159689113Y-47492011D01*
X159789506Y-47548953D01*
X159883994Y-47595519D01*
X159991253Y-47626689D01*
X160096059Y-47649358D01*
X160201858Y-47659937D01*
X160209692Y-47660000D01*
X160307145Y-47660000D01*
X160426329Y-47651663D01*
X160543133Y-47626655D01*
X160657559Y-47584974D01*
X160769605Y-47526620D01*
X160857529Y-47467933D01*
X160943930Y-47398576D01*
X161028809Y-47318548D01*
X161094563Y-47228851D01*
X161149173Y-47139583D01*
X161192637Y-47050744D01*
X161230084Y-46944705D01*
X161251482Y-46839283D01*
X161257054Y-46751905D01*
X161257054Y-46661046D01*
X161248339Y-46546319D01*
X161222192Y-46434168D01*
X161178615Y-46324592D01*
X161117607Y-46217593D01*
X161056250Y-46133848D01*
X160983737Y-46051752D01*
X160900069Y-45971304D01*
X160805531Y-45908400D01*
X160711694Y-45856157D01*
X160618559Y-45814576D01*
X160507723Y-45778753D01*
X160397896Y-45758282D01*
X160307145Y-45752951D01*
G37*
G36*
X158288331Y-45752951D02*
G01*
X158190878Y-45752951D01*
X158083894Y-45760473D01*
X157975288Y-45783039D01*
X157865058Y-45820649D01*
X157771960Y-45863482D01*
X157677736Y-45916762D01*
X157601545Y-45966908D01*
X157522116Y-46039873D01*
X157468709Y-46125225D01*
X157462033Y-46164745D01*
X157462033Y-46206266D01*
X157486943Y-46306061D01*
X157561672Y-46379766D01*
X157659870Y-46420665D01*
X157672839Y-46424131D01*
X157707717Y-46430481D01*
X157808345Y-46407761D01*
X157899756Y-46352119D01*
X157947246Y-46311779D01*
X158037904Y-46260606D01*
X158139292Y-46229007D01*
X158217037Y-46221898D01*
X158264737Y-46221898D01*
X158372322Y-46234333D01*
X158470679Y-46271639D01*
X158559807Y-46333816D01*
X158628857Y-46406906D01*
X158681220Y-46481772D01*
X158720490Y-46574630D01*
X158737768Y-46671976D01*
X158738666Y-46700614D01*
X158738666Y-46724061D01*
X158729688Y-46822273D01*
X158695210Y-46927786D01*
X158634875Y-47019835D01*
X158548682Y-47098420D01*
X158457102Y-47153623D01*
X158370910Y-47191053D01*
X158264737Y-47191053D01*
X158217037Y-47191053D01*
X158109543Y-47176756D01*
X158014198Y-47140044D01*
X157919045Y-47080738D01*
X157835944Y-47010314D01*
X157734622Y-46985122D01*
X157709256Y-46982958D01*
X157606213Y-47002374D01*
X157519941Y-47068580D01*
X157470452Y-47157697D01*
X157462033Y-47181772D01*
X157462033Y-47248206D01*
X157501403Y-47350550D01*
X157575812Y-47425539D01*
X157670300Y-47492011D01*
X157770693Y-47548953D01*
X157865180Y-47595519D01*
X157972439Y-47626689D01*
X158077245Y-47649358D01*
X158183045Y-47659937D01*
X158190878Y-47660000D01*
X158288331Y-47660000D01*
X158407515Y-47651663D01*
X158524320Y-47626655D01*
X158638745Y-47584974D01*
X158750792Y-47526620D01*
X158838716Y-47467933D01*
X158925117Y-47398576D01*
X159009995Y-47318548D01*
X159075750Y-47228851D01*
X159130359Y-47139583D01*
X159173824Y-47050744D01*
X159211270Y-46944705D01*
X159232668Y-46839283D01*
X159238240Y-46751905D01*
X159238240Y-46661046D01*
X159229525Y-46546319D01*
X159203378Y-46434168D01*
X159159801Y-46324592D01*
X159098793Y-46217593D01*
X159037436Y-46133848D01*
X158964923Y-46051752D01*
X158881255Y-45971304D01*
X158786717Y-45908400D01*
X158692881Y-45856157D01*
X158599746Y-45814576D01*
X158488909Y-45778753D01*
X158379082Y-45758282D01*
X158288331Y-45752951D01*
G37*
G36*
X197304340Y-48782951D02*
G01*
X197206887Y-48782951D01*
X197099903Y-48790473D01*
X196991296Y-48813039D01*
X196881067Y-48850649D01*
X196787969Y-48893482D01*
X196693744Y-48946762D01*
X196617553Y-48996908D01*
X196538124Y-49069873D01*
X196484717Y-49155225D01*
X196478042Y-49194745D01*
X196478042Y-49236266D01*
X196502951Y-49336061D01*
X196577680Y-49409766D01*
X196675878Y-49450665D01*
X196688848Y-49454131D01*
X196723726Y-49460481D01*
X196824354Y-49437761D01*
X196915764Y-49382119D01*
X196963254Y-49341779D01*
X197053912Y-49290606D01*
X197155300Y-49259007D01*
X197233045Y-49251898D01*
X197280746Y-49251898D01*
X197388331Y-49264333D01*
X197486687Y-49301639D01*
X197575815Y-49363816D01*
X197644866Y-49436906D01*
X197697229Y-49511772D01*
X197736498Y-49604630D01*
X197753777Y-49701976D01*
X197754675Y-49730614D01*
X197754675Y-49754061D01*
X197745696Y-49852273D01*
X197711219Y-49957786D01*
X197650884Y-50049835D01*
X197564691Y-50128420D01*
X197473111Y-50183623D01*
X197386918Y-50221053D01*
X197280746Y-50221053D01*
X197233045Y-50221053D01*
X197125552Y-50206756D01*
X197030207Y-50170044D01*
X196935054Y-50110738D01*
X196851953Y-50040314D01*
X196750631Y-50015122D01*
X196725264Y-50012958D01*
X196622221Y-50032374D01*
X196535949Y-50098580D01*
X196486461Y-50187697D01*
X196478042Y-50211772D01*
X196478042Y-50278206D01*
X196517411Y-50380550D01*
X196591820Y-50455539D01*
X196686308Y-50522011D01*
X196786701Y-50578953D01*
X196881189Y-50625519D01*
X196988448Y-50656689D01*
X197093254Y-50679358D01*
X197199053Y-50689937D01*
X197206887Y-50690000D01*
X197304340Y-50690000D01*
X197423524Y-50681663D01*
X197540328Y-50656655D01*
X197654754Y-50614974D01*
X197766800Y-50556620D01*
X197854724Y-50497933D01*
X197941125Y-50428576D01*
X198026004Y-50348548D01*
X198091758Y-50258851D01*
X198146367Y-50169583D01*
X198189832Y-50080744D01*
X198227279Y-49974705D01*
X198248676Y-49869283D01*
X198254249Y-49781905D01*
X198254249Y-49691046D01*
X198245533Y-49576319D01*
X198219387Y-49464168D01*
X198175810Y-49354592D01*
X198114801Y-49247593D01*
X198053445Y-49163848D01*
X197980932Y-49081752D01*
X197897264Y-49001304D01*
X197802726Y-48938400D01*
X197708889Y-48886157D01*
X197615754Y-48844576D01*
X197504917Y-48808753D01*
X197395091Y-48788282D01*
X197304340Y-48782951D01*
G37*
G36*
X195958977Y-48782951D02*
G01*
X195854792Y-48814151D01*
X195783562Y-48889289D01*
X195741503Y-48971995D01*
X195741503Y-49819030D01*
X195734385Y-49930340D01*
X195708820Y-50033396D01*
X195657834Y-50118532D01*
X195592759Y-50166831D01*
X195497791Y-50213428D01*
X195441963Y-50221053D01*
X195382466Y-50221053D01*
X195281397Y-50201972D01*
X195194252Y-50144727D01*
X195127727Y-50060578D01*
X195108059Y-50025659D01*
X195089081Y-49935289D01*
X195089081Y-49091186D01*
X195080394Y-48985337D01*
X195045101Y-48886428D01*
X194966915Y-48816727D01*
X194950083Y-48810307D01*
X194863914Y-48782951D01*
X194806981Y-48782951D01*
X194702288Y-48813990D01*
X194629835Y-48888739D01*
X194586430Y-48971018D01*
X194586430Y-49934312D01*
X194595784Y-50047248D01*
X194623846Y-50155247D01*
X194670616Y-50258308D01*
X194736095Y-50356432D01*
X194801948Y-50431377D01*
X194879774Y-50503161D01*
X194969573Y-50571786D01*
X195063042Y-50617848D01*
X195166858Y-50656636D01*
X195267469Y-50680649D01*
X195376824Y-50690000D01*
X195445041Y-50690000D01*
X195563155Y-50681067D01*
X195676111Y-50654269D01*
X195783907Y-50609607D01*
X195886544Y-50547079D01*
X195984022Y-50466687D01*
X196058290Y-50389510D01*
X196111824Y-50324124D01*
X196159989Y-50234344D01*
X196200549Y-50134831D01*
X196225657Y-50038614D01*
X196235435Y-49934312D01*
X196235435Y-48990558D01*
X196203014Y-48891253D01*
X196124935Y-48823221D01*
X196038991Y-48782951D01*
X195958977Y-48782951D01*
G37*
G36*
X192910753Y-48782951D02*
G01*
X192806640Y-48813425D01*
X192734280Y-48886816D01*
X192690714Y-48967599D01*
X192690714Y-49042337D01*
X192723559Y-49140135D01*
X192802657Y-49207018D01*
X192889723Y-49246524D01*
X193013848Y-49251898D01*
X193263635Y-49251898D01*
X193263635Y-50324612D01*
X193266605Y-50426326D01*
X193279150Y-50524403D01*
X193325697Y-50607934D01*
X193411673Y-50667285D01*
X193478544Y-50690000D01*
X193546248Y-50690000D01*
X193648864Y-50658961D01*
X193720221Y-50584212D01*
X193763209Y-50501933D01*
X193769364Y-50458457D01*
X193763722Y-50417424D01*
X193763722Y-49251898D01*
X194018638Y-49251898D01*
X194129074Y-49243746D01*
X194232227Y-49210630D01*
X194304836Y-49137266D01*
X194311510Y-49121472D01*
X194339720Y-49043314D01*
X194339720Y-48987138D01*
X194307299Y-48889341D01*
X194229220Y-48822458D01*
X194143275Y-48782951D01*
X192910753Y-48782951D01*
G37*
G36*
X191439214Y-48782951D02*
G01*
X191335029Y-48813990D01*
X191263799Y-48888739D01*
X191221740Y-48971018D01*
X191221740Y-50482393D01*
X191254161Y-50581697D01*
X191332240Y-50649730D01*
X191418185Y-50690000D01*
X191498199Y-50690000D01*
X191602383Y-50658961D01*
X191673614Y-50584212D01*
X191715672Y-50501933D01*
X191715672Y-48990558D01*
X191683251Y-48891253D01*
X191605172Y-48823221D01*
X191519228Y-48782951D01*
X191439214Y-48782951D01*
G37*
G36*
X190692417Y-50221053D02*
G01*
X190588232Y-50251850D01*
X190517002Y-50326017D01*
X190474943Y-50407655D01*
X190474943Y-50483370D01*
X190507364Y-50582277D01*
X190585443Y-50649974D01*
X190671388Y-50690000D01*
X190751402Y-50690000D01*
X190855587Y-50659203D01*
X190926817Y-50585036D01*
X190968876Y-50503398D01*
X190968876Y-50427683D01*
X190936455Y-50328775D01*
X190858375Y-50261079D01*
X190772431Y-50221053D01*
X190692417Y-50221053D01*
G37*
G36*
X189272169Y-48782951D02*
G01*
X189174716Y-48782951D01*
X189067733Y-48790473D01*
X188959126Y-48813039D01*
X188848896Y-48850649D01*
X188755799Y-48893482D01*
X188661574Y-48946762D01*
X188585383Y-48996908D01*
X188505954Y-49069873D01*
X188452547Y-49155225D01*
X188445871Y-49194745D01*
X188445871Y-49236266D01*
X188470781Y-49336061D01*
X188545510Y-49409766D01*
X188643708Y-49450665D01*
X188656677Y-49454131D01*
X188691555Y-49460481D01*
X188792184Y-49437761D01*
X188883594Y-49382119D01*
X188931084Y-49341779D01*
X189021742Y-49290606D01*
X189123130Y-49259007D01*
X189200875Y-49251898D01*
X189248575Y-49251898D01*
X189356160Y-49264333D01*
X189454517Y-49301639D01*
X189543645Y-49363816D01*
X189612695Y-49436906D01*
X189665058Y-49511772D01*
X189704328Y-49604630D01*
X189721607Y-49701976D01*
X189722504Y-49730614D01*
X189722504Y-49754061D01*
X189713526Y-49852273D01*
X189679049Y-49957786D01*
X189618714Y-50049835D01*
X189532521Y-50128420D01*
X189440941Y-50183623D01*
X189354748Y-50221053D01*
X189248575Y-50221053D01*
X189200875Y-50221053D01*
X189093382Y-50206756D01*
X188998036Y-50170044D01*
X188902884Y-50110738D01*
X188819783Y-50040314D01*
X188718460Y-50015122D01*
X188693094Y-50012958D01*
X188590051Y-50032374D01*
X188503779Y-50098580D01*
X188454290Y-50187697D01*
X188445871Y-50211772D01*
X188445871Y-50278206D01*
X188485241Y-50380550D01*
X188559650Y-50455539D01*
X188654138Y-50522011D01*
X188754531Y-50578953D01*
X188849019Y-50625519D01*
X188956277Y-50656689D01*
X189061083Y-50679358D01*
X189166883Y-50689937D01*
X189174716Y-50690000D01*
X189272169Y-50690000D01*
X189391353Y-50681663D01*
X189508158Y-50656655D01*
X189622584Y-50614974D01*
X189734630Y-50556620D01*
X189822554Y-50497933D01*
X189908955Y-50428576D01*
X189993834Y-50348548D01*
X190059588Y-50258851D01*
X190114197Y-50169583D01*
X190157662Y-50080744D01*
X190195108Y-49974705D01*
X190216506Y-49869283D01*
X190222079Y-49781905D01*
X190222079Y-49691046D01*
X190213363Y-49576319D01*
X190187217Y-49464168D01*
X190143639Y-49354592D01*
X190082631Y-49247593D01*
X190021274Y-49163848D01*
X189948762Y-49081752D01*
X189865093Y-49001304D01*
X189770556Y-48938400D01*
X189676719Y-48886157D01*
X189583584Y-48844576D01*
X189472747Y-48808753D01*
X189362920Y-48788282D01*
X189272169Y-48782951D01*
G37*
G36*
X187926806Y-50221053D02*
G01*
X187822622Y-50251850D01*
X187751391Y-50326017D01*
X187709333Y-50407655D01*
X187709333Y-50483370D01*
X187741754Y-50582277D01*
X187819833Y-50649974D01*
X187905777Y-50690000D01*
X187985791Y-50690000D01*
X188089976Y-50659203D01*
X188161206Y-50585036D01*
X188203265Y-50503398D01*
X188203265Y-50427683D01*
X188170844Y-50328775D01*
X188092765Y-50261079D01*
X188006820Y-50221053D01*
X187926806Y-50221053D01*
G37*
G36*
X197054552Y-52142951D02*
G01*
X196956813Y-52172684D01*
X196883194Y-52245499D01*
X196849901Y-52298290D01*
X196831437Y-52400383D01*
X196837079Y-53590823D01*
X196847337Y-53590823D01*
X196132853Y-53581053D01*
X196028160Y-53611850D01*
X195955707Y-53686017D01*
X195912302Y-53767655D01*
X195912302Y-53843370D01*
X195945231Y-53942277D01*
X196024533Y-54009974D01*
X196111824Y-54050000D01*
X197113537Y-54050000D01*
X197217722Y-54018961D01*
X197288952Y-53944212D01*
X197331011Y-53861933D01*
X197331011Y-52350558D01*
X197298590Y-52251253D01*
X197220511Y-52183221D01*
X197134566Y-52142951D01*
X197054552Y-52142951D01*
G37*
G36*
X194468973Y-52142951D02*
G01*
X194364280Y-52173748D01*
X194291827Y-52247915D01*
X194248422Y-52329553D01*
X194248422Y-52405268D01*
X194281351Y-52504176D01*
X194360653Y-52571872D01*
X194447944Y-52611898D01*
X194947518Y-52611898D01*
X195167557Y-52611898D01*
X195167557Y-52862002D01*
X194583865Y-52862002D01*
X194479752Y-52892476D01*
X194407392Y-52965867D01*
X194363827Y-53046650D01*
X194363827Y-53121388D01*
X194396671Y-53219186D01*
X194475769Y-53286069D01*
X194562836Y-53325575D01*
X194686960Y-53330949D01*
X195167557Y-53330949D01*
X195167557Y-53581053D01*
X194607459Y-53581053D01*
X194572068Y-53581053D01*
X194460703Y-53589205D01*
X194356658Y-53622321D01*
X194283376Y-53695685D01*
X194276632Y-53711479D01*
X194248422Y-53789148D01*
X194248422Y-53845812D01*
X194281351Y-53943610D01*
X194360653Y-54010493D01*
X194447944Y-54050000D01*
X195449657Y-54050000D01*
X195553842Y-54018961D01*
X195625072Y-53944212D01*
X195667131Y-53861933D01*
X195667131Y-52350558D01*
X195634710Y-52251253D01*
X195556631Y-52183221D01*
X195470686Y-52142951D01*
X194468973Y-52142951D01*
G37*
G36*
X193128815Y-52164253D02*
G01*
X193211318Y-52225505D01*
X193231111Y-52258356D01*
X193287729Y-52357045D01*
X193340362Y-52453033D01*
X193399519Y-52564163D01*
X193448168Y-52657449D01*
X193500486Y-52759252D01*
X193556474Y-52869574D01*
X193616132Y-52988413D01*
X193679458Y-53115771D01*
X193723715Y-53205408D01*
X193757565Y-53270243D01*
X193804245Y-53360354D01*
X193858842Y-53467172D01*
X193914804Y-53579271D01*
X193963941Y-53682368D01*
X194003251Y-53785729D01*
X194003251Y-53838485D01*
X193990428Y-53890265D01*
X193960410Y-53936282D01*
X193884075Y-54014902D01*
X193780135Y-54050000D01*
X193732434Y-54050000D01*
X193633443Y-54020690D01*
X193574755Y-53976452D01*
X193518337Y-53885210D01*
X193474820Y-53796733D01*
X193434947Y-53706106D01*
X192596852Y-53706106D01*
X192536328Y-53817480D01*
X192518432Y-53859034D01*
X192464977Y-53949862D01*
X192386437Y-54022524D01*
X192285003Y-54050000D01*
X192247047Y-54050000D01*
X192180369Y-54031437D01*
X192132642Y-53995893D01*
X192056116Y-53923237D01*
X192014699Y-53831158D01*
X192014699Y-53760327D01*
X192052446Y-53683855D01*
X192101814Y-53588203D01*
X192151546Y-53493013D01*
X192212169Y-53377721D01*
X192258636Y-53289693D01*
X192286434Y-53237159D01*
X192854845Y-53237159D01*
X193184134Y-53237159D01*
X193167863Y-53203387D01*
X193117194Y-53099519D01*
X193071249Y-53008119D01*
X193019490Y-52915247D01*
X192854845Y-53237159D01*
X192286434Y-53237159D01*
X192309943Y-53192730D01*
X192366090Y-53086834D01*
X192427079Y-52972003D01*
X192492907Y-52848239D01*
X192563577Y-52715541D01*
X192639087Y-52573908D01*
X192719437Y-52423342D01*
X192762942Y-52328053D01*
X192819624Y-52241800D01*
X192901877Y-52170333D01*
X193005641Y-52142951D01*
X193053855Y-52142951D01*
X193128815Y-52164253D01*
G37*
G36*
X191658515Y-52183221D02*
G01*
X191736594Y-52251253D01*
X191769015Y-52350558D01*
X191769015Y-53861933D01*
X191726956Y-53944212D01*
X191655726Y-54018961D01*
X191551541Y-54050000D01*
X191072996Y-54050000D01*
X190981371Y-54044669D01*
X190870727Y-54024198D01*
X190759325Y-53988374D01*
X190665912Y-53946794D01*
X190571973Y-53894551D01*
X190477508Y-53831646D01*
X190393719Y-53751199D01*
X190321102Y-53669103D01*
X190259657Y-53585358D01*
X190198561Y-53478359D01*
X190154921Y-53368783D01*
X190128737Y-53256632D01*
X190120009Y-53141905D01*
X190120009Y-53073517D01*
X190622661Y-53073517D01*
X190622661Y-53119434D01*
X190628647Y-53191970D01*
X190657138Y-53286428D01*
X190709094Y-53372611D01*
X190784512Y-53450519D01*
X190867832Y-53510711D01*
X190938898Y-53547806D01*
X191046540Y-53569444D01*
X191158873Y-53578580D01*
X191275083Y-53581053D01*
X191269441Y-53124808D01*
X191269441Y-52611898D01*
X191226869Y-52611898D01*
X191156484Y-52613048D01*
X191047490Y-52621134D01*
X190940665Y-52644626D01*
X190921101Y-52654243D01*
X190816756Y-52717075D01*
X190734770Y-52788699D01*
X190675144Y-52869116D01*
X190633841Y-52974049D01*
X190622661Y-53073517D01*
X190120009Y-53073517D01*
X190120009Y-53051046D01*
X190125582Y-52963667D01*
X190146980Y-52858246D01*
X190184426Y-52752207D01*
X190227891Y-52663368D01*
X190282500Y-52574100D01*
X190348254Y-52484403D01*
X190433181Y-52404375D01*
X190519727Y-52335018D01*
X190607891Y-52276331D01*
X190720373Y-52217977D01*
X190835385Y-52176296D01*
X190952926Y-52151288D01*
X191072996Y-52142951D01*
X191572571Y-52142951D01*
X191658515Y-52183221D01*
G37*
G36*
X189298328Y-52142951D02*
G01*
X189200875Y-52142951D01*
X189082308Y-52149117D01*
X188980115Y-52167612D01*
X188881583Y-52204775D01*
X188796264Y-52267797D01*
X188757721Y-52318318D01*
X188732686Y-52413086D01*
X188732588Y-52418457D01*
X188732588Y-52435554D01*
X188757255Y-52533655D01*
X188831257Y-52615708D01*
X188928499Y-52670908D01*
X188941342Y-52676378D01*
X189001353Y-52688590D01*
X189107885Y-52664653D01*
X189214795Y-52632825D01*
X189253705Y-52620690D01*
X189291147Y-52620690D01*
X189372435Y-52683255D01*
X189373725Y-52698360D01*
X189373725Y-52720830D01*
X189294836Y-52792722D01*
X189188246Y-52838174D01*
X189078852Y-52875509D01*
X189014688Y-52895219D01*
X188903571Y-52947300D01*
X188811288Y-53008897D01*
X188737837Y-53080011D01*
X188674557Y-53177911D01*
X188638397Y-53289515D01*
X188628980Y-53392986D01*
X188628980Y-53449651D01*
X188638359Y-53554866D01*
X188666497Y-53652830D01*
X188713392Y-53743543D01*
X188779046Y-53827006D01*
X188863459Y-53903217D01*
X188966629Y-53972178D01*
X189013150Y-53997732D01*
X189115218Y-54031573D01*
X189220405Y-54048723D01*
X189256782Y-54050000D01*
X189310125Y-54050000D01*
X189417650Y-54042099D01*
X189523457Y-54018397D01*
X189627546Y-53978893D01*
X189729917Y-53923589D01*
X189787644Y-53884891D01*
X189851158Y-53804411D01*
X189873300Y-53732484D01*
X189873300Y-53675819D01*
X189844088Y-53581778D01*
X189765987Y-53508005D01*
X189665571Y-53456489D01*
X189602483Y-53456489D01*
X189502874Y-53489163D01*
X189403021Y-53532916D01*
X189318331Y-53572260D01*
X189269092Y-53572260D01*
X189173771Y-53528175D01*
X189128555Y-53447208D01*
X189128555Y-53404221D01*
X189179621Y-53314439D01*
X189270406Y-53265957D01*
X189368284Y-53235566D01*
X189469353Y-53214149D01*
X189491695Y-53210293D01*
X189601630Y-53165015D01*
X189692932Y-53109170D01*
X189777899Y-53028210D01*
X189836034Y-52932033D01*
X189867337Y-52820641D01*
X189873300Y-52737927D01*
X189873300Y-52692498D01*
X189861453Y-52580207D01*
X189825912Y-52476709D01*
X189766677Y-52382004D01*
X189683747Y-52296092D01*
X189596540Y-52231215D01*
X189536318Y-52195219D01*
X189436665Y-52161378D01*
X189333891Y-52144227D01*
X189298328Y-52142951D01*
G37*
G36*
X196875034Y-55502951D02*
G01*
X196777581Y-55502951D01*
X196659015Y-55509117D01*
X196556821Y-55527612D01*
X196458289Y-55564775D01*
X196372970Y-55627797D01*
X196334427Y-55678318D01*
X196309392Y-55773086D01*
X196309294Y-55778457D01*
X196309294Y-55795554D01*
X196333961Y-55893655D01*
X196407963Y-55975708D01*
X196505205Y-56030908D01*
X196518048Y-56036378D01*
X196578059Y-56048590D01*
X196684591Y-56024653D01*
X196791501Y-55992825D01*
X196830411Y-55980690D01*
X196867853Y-55980690D01*
X196949141Y-56043255D01*
X196950432Y-56058360D01*
X196950432Y-56080830D01*
X196871542Y-56152722D01*
X196764952Y-56198174D01*
X196655558Y-56235509D01*
X196591395Y-56255219D01*
X196480277Y-56307300D01*
X196387994Y-56368897D01*
X196314543Y-56440011D01*
X196251263Y-56537911D01*
X196215103Y-56649515D01*
X196205686Y-56752986D01*
X196205686Y-56809651D01*
X196215065Y-56914866D01*
X196243203Y-57012830D01*
X196290099Y-57103543D01*
X196355753Y-57187006D01*
X196440165Y-57263217D01*
X196543335Y-57332178D01*
X196589856Y-57357732D01*
X196691924Y-57391573D01*
X196797111Y-57408723D01*
X196833488Y-57410000D01*
X196886831Y-57410000D01*
X196994356Y-57402099D01*
X197100163Y-57378397D01*
X197204252Y-57338893D01*
X197306624Y-57283589D01*
X197364350Y-57244891D01*
X197427864Y-57164411D01*
X197450006Y-57092484D01*
X197450006Y-57035819D01*
X197420794Y-56941778D01*
X197342693Y-56868005D01*
X197242277Y-56816489D01*
X197179189Y-56816489D01*
X197079580Y-56849163D01*
X196979728Y-56892916D01*
X196895037Y-56932260D01*
X196845798Y-56932260D01*
X196750477Y-56888175D01*
X196705261Y-56807208D01*
X196705261Y-56764221D01*
X196756327Y-56674439D01*
X196847112Y-56625957D01*
X196944990Y-56595566D01*
X197046059Y-56574149D01*
X197068401Y-56570293D01*
X197178336Y-56525015D01*
X197269638Y-56469170D01*
X197354605Y-56388210D01*
X197412740Y-56292033D01*
X197444043Y-56180641D01*
X197450006Y-56097927D01*
X197450006Y-56052498D01*
X197438159Y-55940207D01*
X197402618Y-55836709D01*
X197343383Y-55742004D01*
X197260454Y-55656092D01*
X197173246Y-55591215D01*
X197113024Y-55555219D01*
X197013371Y-55521378D01*
X196910597Y-55504227D01*
X196875034Y-55502951D01*
G37*
G36*
X195679954Y-55502951D02*
G01*
X195575769Y-55534151D01*
X195504538Y-55609289D01*
X195462480Y-55691995D01*
X195456838Y-55812163D01*
X195456838Y-56222002D01*
X194803903Y-56222002D01*
X194803903Y-55712512D01*
X194770974Y-55612178D01*
X194691672Y-55543526D01*
X194604381Y-55502951D01*
X194527445Y-55502951D01*
X194423084Y-55533990D01*
X194350779Y-55608739D01*
X194307406Y-55691018D01*
X194307406Y-57202393D01*
X194340335Y-57301697D01*
X194419638Y-57369730D01*
X194506928Y-57410000D01*
X194583865Y-57410000D01*
X194688226Y-57379042D01*
X194760530Y-57304487D01*
X194803903Y-57222421D01*
X194810058Y-57100300D01*
X194810058Y-56690949D01*
X195462480Y-56690949D01*
X195462480Y-57201905D01*
X195494901Y-57301525D01*
X195572980Y-57369699D01*
X195658924Y-57410000D01*
X195738938Y-57410000D01*
X195843123Y-57378961D01*
X195914353Y-57304212D01*
X195956412Y-57221933D01*
X195956412Y-55710558D01*
X195923991Y-55611253D01*
X195845912Y-55543221D01*
X195759968Y-55502951D01*
X195679954Y-55502951D01*
G37*
G36*
X193202202Y-55508294D02*
G01*
X193312462Y-55528811D01*
X193423334Y-55564714D01*
X193516197Y-55606388D01*
X193609485Y-55658748D01*
X193703198Y-55721793D01*
X193786987Y-55802126D01*
X193859604Y-55884123D01*
X193921049Y-55967784D01*
X193982145Y-56074700D01*
X194025785Y-56184215D01*
X194051969Y-56296331D01*
X194060697Y-56411046D01*
X194060697Y-56501905D01*
X194055124Y-56589283D01*
X194033726Y-56694705D01*
X193996280Y-56800744D01*
X193952815Y-56889583D01*
X193898206Y-56978851D01*
X193832452Y-57068548D01*
X193748246Y-57148576D01*
X193662326Y-57217933D01*
X193574690Y-57276620D01*
X193462734Y-57334974D01*
X193348098Y-57376655D01*
X193230783Y-57401663D01*
X193110787Y-57410000D01*
X193018977Y-57410000D01*
X192926675Y-57404657D01*
X192815550Y-57384140D01*
X192704028Y-57348237D01*
X192610790Y-57306563D01*
X192517277Y-57254203D01*
X192423488Y-57191158D01*
X192339699Y-57110825D01*
X192267083Y-57028828D01*
X192205638Y-56945167D01*
X192144542Y-56838251D01*
X192100902Y-56728736D01*
X192074718Y-56616620D01*
X192065990Y-56501905D01*
X192065990Y-56433517D01*
X192565564Y-56433517D01*
X192565564Y-56479434D01*
X192572044Y-56545445D01*
X192599416Y-56639658D01*
X192609411Y-56658200D01*
X192663021Y-56742085D01*
X192735353Y-56823321D01*
X192816413Y-56883364D01*
X192922014Y-56926631D01*
X193039493Y-56941053D01*
X193087194Y-56941053D01*
X193155397Y-56934695D01*
X193254915Y-56907836D01*
X193358978Y-56846190D01*
X193441510Y-56775922D01*
X193510586Y-56683047D01*
X193550357Y-56578438D01*
X193561122Y-56479434D01*
X193561122Y-56433517D01*
X193554643Y-56367506D01*
X193527270Y-56273293D01*
X193517276Y-56254750D01*
X193463666Y-56170866D01*
X193391333Y-56089630D01*
X193310273Y-56029587D01*
X193204673Y-55986320D01*
X193087194Y-55971898D01*
X193039493Y-55971898D01*
X192976936Y-55977380D01*
X192874849Y-56005115D01*
X192769740Y-56066761D01*
X192686378Y-56137029D01*
X192616608Y-56229903D01*
X192576437Y-56334512D01*
X192565564Y-56433517D01*
X192065990Y-56433517D01*
X192065990Y-56411046D01*
X192071562Y-56323667D01*
X192092960Y-56218246D01*
X192130407Y-56112207D01*
X192173871Y-56023368D01*
X192228481Y-55934100D01*
X192294235Y-55844403D01*
X192379161Y-55764375D01*
X192465707Y-55695018D01*
X192553871Y-55636331D01*
X192666353Y-55577977D01*
X192781365Y-55536296D01*
X192898906Y-55511288D01*
X193018977Y-55502951D01*
X193110787Y-55502951D01*
X193202202Y-55508294D01*
G37*
G36*
X191709806Y-55543221D02*
G01*
X191787885Y-55611253D01*
X191820306Y-55710558D01*
X191820306Y-57221933D01*
X191778247Y-57304212D01*
X191707017Y-57378961D01*
X191602832Y-57410000D01*
X191541796Y-57410000D01*
X191493861Y-57397297D01*
X191400746Y-57345031D01*
X191348940Y-57283016D01*
X191325733Y-57180167D01*
X191320732Y-57076364D01*
X191330316Y-56866405D01*
X190962208Y-57213628D01*
X190930181Y-57248722D01*
X190848524Y-57325429D01*
X190763174Y-57382385D01*
X190660104Y-57410000D01*
X190601632Y-57410000D01*
X190589325Y-57405758D01*
X190496145Y-57359510D01*
X190425234Y-57283255D01*
X190401597Y-57185296D01*
X190401597Y-57162826D01*
X190413394Y-57096880D01*
X190433494Y-57055145D01*
X190504156Y-56973233D01*
X190579530Y-56898059D01*
X190659615Y-56822847D01*
X190734988Y-56754452D01*
X190656850Y-56696849D01*
X190573828Y-56620830D01*
X190507084Y-56540352D01*
X190448480Y-56437890D01*
X190413318Y-56329005D01*
X190401597Y-56213698D01*
X190401597Y-56150195D01*
X190904249Y-56150195D01*
X190904249Y-56217606D01*
X190920838Y-56254242D01*
X190986045Y-56339575D01*
X191082741Y-56373921D01*
X191320732Y-56373921D01*
X191320732Y-55971898D01*
X191186862Y-55971898D01*
X191068893Y-55977271D01*
X191030304Y-55993757D01*
X190940425Y-56057459D01*
X190904249Y-56150195D01*
X190401597Y-56150195D01*
X190401597Y-56148729D01*
X190404402Y-56099669D01*
X190426842Y-55996610D01*
X190466224Y-55898228D01*
X190516489Y-55806301D01*
X190579440Y-55735203D01*
X190660993Y-55659662D01*
X190745725Y-55598933D01*
X190851603Y-55545610D01*
X190962061Y-55513616D01*
X191077099Y-55502951D01*
X191623861Y-55502951D01*
X191709806Y-55543221D01*
G37*
G36*
X188727459Y-55502951D02*
G01*
X188623346Y-55533425D01*
X188550986Y-55606816D01*
X188507420Y-55687599D01*
X188507420Y-55762337D01*
X188540265Y-55860135D01*
X188619363Y-55927018D01*
X188706429Y-55966524D01*
X188830554Y-55971898D01*
X189080341Y-55971898D01*
X189080341Y-57044612D01*
X189083311Y-57146326D01*
X189095856Y-57244403D01*
X189142403Y-57327934D01*
X189228379Y-57387285D01*
X189295250Y-57410000D01*
X189362954Y-57410000D01*
X189465570Y-57378961D01*
X189536927Y-57304212D01*
X189579915Y-57221933D01*
X189586070Y-57178457D01*
X189580428Y-57137424D01*
X189580428Y-55971898D01*
X189835344Y-55971898D01*
X189945780Y-55963746D01*
X190048933Y-55930630D01*
X190121542Y-55857266D01*
X190128216Y-55841472D01*
X190156426Y-55763314D01*
X190156426Y-55707138D01*
X190124005Y-55609341D01*
X190045926Y-55542458D01*
X189959981Y-55502951D01*
X188727459Y-55502951D01*
G37*
G36*
X202554212Y-65084097D02*
G01*
X202628961Y-65155327D01*
X202660000Y-65259512D01*
X202660000Y-65744212D01*
X202659587Y-65790156D01*
X202654458Y-65900199D01*
X202641681Y-66002310D01*
X202613105Y-66102736D01*
X202589049Y-66149319D01*
X202523583Y-66252627D01*
X202450508Y-66337152D01*
X202369824Y-66402893D01*
X202281532Y-66449852D01*
X202185631Y-66478027D01*
X202082121Y-66487418D01*
X202042554Y-66487418D01*
X201983730Y-66484313D01*
X201883738Y-66463071D01*
X201791320Y-66421706D01*
X201706475Y-66360217D01*
X201705498Y-66360217D01*
X201652075Y-66396862D01*
X201553629Y-66447171D01*
X201452246Y-66477357D01*
X201347927Y-66487418D01*
X201328721Y-66487071D01*
X201228057Y-66474922D01*
X201127131Y-66447924D01*
X201081821Y-66422636D01*
X200981333Y-66353558D01*
X200899115Y-66276116D01*
X200835169Y-66190308D01*
X200789492Y-66096136D01*
X200762087Y-65993599D01*
X200753458Y-65888852D01*
X201221898Y-65888852D01*
X201242280Y-65944980D01*
X201328387Y-65993486D01*
X201356811Y-65990994D01*
X201440587Y-65931176D01*
X201454265Y-65888852D01*
X201940949Y-65888852D01*
X201961799Y-65947505D01*
X202049881Y-65993486D01*
X202071863Y-65993486D01*
X202137465Y-65968467D01*
X202191053Y-65879620D01*
X202191053Y-65535970D01*
X201940949Y-65535970D01*
X201940949Y-65888852D01*
X201454265Y-65888852D01*
X201472002Y-65833971D01*
X201472002Y-65541612D01*
X201221898Y-65541612D01*
X201221898Y-65888852D01*
X200753458Y-65888852D01*
X200752951Y-65882698D01*
X200752951Y-65281054D01*
X200765163Y-65229763D01*
X200808778Y-65156616D01*
X200879109Y-65077970D01*
X200971793Y-65042038D01*
X202471933Y-65042038D01*
X202554212Y-65084097D01*
G37*
G36*
X201839283Y-66740213D02*
G01*
X201944705Y-66761611D01*
X202050744Y-66799058D01*
X202139583Y-66842522D01*
X202228851Y-66897132D01*
X202318548Y-66962886D01*
X202398576Y-67047091D01*
X202467933Y-67133012D01*
X202526620Y-67220647D01*
X202584974Y-67332603D01*
X202626655Y-67447239D01*
X202651663Y-67564555D01*
X202660000Y-67684550D01*
X202660000Y-67776361D01*
X202654657Y-67868662D01*
X202634140Y-67979788D01*
X202598237Y-68091309D01*
X202556563Y-68184547D01*
X202504203Y-68278061D01*
X202441158Y-68371850D01*
X202360825Y-68455638D01*
X202278828Y-68528255D01*
X202195167Y-68589700D01*
X202088251Y-68650796D01*
X201978736Y-68694436D01*
X201866620Y-68720620D01*
X201751905Y-68729348D01*
X201661046Y-68729348D01*
X201573667Y-68723776D01*
X201468246Y-68702378D01*
X201362207Y-68664931D01*
X201273368Y-68621467D01*
X201184100Y-68566857D01*
X201094403Y-68501103D01*
X201014375Y-68416176D01*
X200945018Y-68329631D01*
X200886331Y-68241466D01*
X200827977Y-68128984D01*
X200786296Y-68013973D01*
X200761288Y-67896432D01*
X200752951Y-67776361D01*
X200752951Y-67708144D01*
X201221898Y-67708144D01*
X201221898Y-67755845D01*
X201227380Y-67818401D01*
X201255115Y-67920489D01*
X201316761Y-68025597D01*
X201387029Y-68108959D01*
X201479903Y-68178730D01*
X201584512Y-68218900D01*
X201683517Y-68229774D01*
X201729434Y-68229774D01*
X201795445Y-68223294D01*
X201889658Y-68195922D01*
X201908200Y-68185927D01*
X201992085Y-68132317D01*
X202073321Y-68059984D01*
X202133364Y-67978925D01*
X202176631Y-67873324D01*
X202191053Y-67755845D01*
X202191053Y-67708144D01*
X202184695Y-67639941D01*
X202157836Y-67540423D01*
X202096190Y-67436360D01*
X202025922Y-67353828D01*
X201933047Y-67284752D01*
X201828438Y-67244980D01*
X201729434Y-67234215D01*
X201683517Y-67234215D01*
X201617506Y-67240695D01*
X201523293Y-67268067D01*
X201504750Y-67278062D01*
X201420866Y-67331672D01*
X201339630Y-67404005D01*
X201279587Y-67485064D01*
X201236320Y-67590665D01*
X201221898Y-67708144D01*
X200752951Y-67708144D01*
X200752951Y-67684550D01*
X200758294Y-67593136D01*
X200778811Y-67482876D01*
X200814714Y-67372003D01*
X200856388Y-67279141D01*
X200908748Y-67185853D01*
X200971793Y-67092139D01*
X201052126Y-67008351D01*
X201134123Y-66935734D01*
X201217784Y-66874289D01*
X201324700Y-66813193D01*
X201434215Y-66769553D01*
X201546331Y-66743369D01*
X201661046Y-66734641D01*
X201751905Y-66734641D01*
X201839283Y-66740213D01*
G37*
G36*
X200752951Y-70403999D02*
G01*
X200783425Y-70508112D01*
X200856816Y-70580472D01*
X200937599Y-70624037D01*
X201012337Y-70624037D01*
X201110135Y-70591193D01*
X201177018Y-70512095D01*
X201216524Y-70425028D01*
X201221898Y-70300904D01*
X201221898Y-70051117D01*
X202294612Y-70051117D01*
X202396326Y-70048147D01*
X202494403Y-70035601D01*
X202577934Y-69989055D01*
X202637285Y-69903078D01*
X202660000Y-69836208D01*
X202660000Y-69768504D01*
X202628961Y-69665888D01*
X202554212Y-69594531D01*
X202471933Y-69551543D01*
X202428457Y-69545388D01*
X202387424Y-69551030D01*
X201221898Y-69551030D01*
X201221898Y-69296113D01*
X201213746Y-69185678D01*
X201180630Y-69082525D01*
X201107266Y-69009916D01*
X201091472Y-69003242D01*
X201013314Y-68975032D01*
X200957138Y-68975032D01*
X200859341Y-69007453D01*
X200792458Y-69085532D01*
X200752951Y-69171476D01*
X200752951Y-70403999D01*
G37*
G36*
X200752951Y-72299714D02*
G01*
X200783425Y-72403828D01*
X200856816Y-72476187D01*
X200937599Y-72519753D01*
X201012337Y-72519753D01*
X201110135Y-72486908D01*
X201177018Y-72407810D01*
X201216524Y-72320744D01*
X201221898Y-72196619D01*
X201221898Y-71946832D01*
X202294612Y-71946832D01*
X202396326Y-71943862D01*
X202494403Y-71931317D01*
X202577934Y-71884770D01*
X202637285Y-71798794D01*
X202660000Y-71731923D01*
X202660000Y-71664219D01*
X202628961Y-71561603D01*
X202554212Y-71490246D01*
X202471933Y-71447258D01*
X202428457Y-71441103D01*
X202387424Y-71446745D01*
X201221898Y-71446745D01*
X201221898Y-71191829D01*
X201213746Y-71081393D01*
X201180630Y-70978240D01*
X201107266Y-70905631D01*
X201091472Y-70898957D01*
X201013314Y-70870747D01*
X200957138Y-70870747D01*
X200859341Y-70903168D01*
X200792458Y-70981247D01*
X200752951Y-71067192D01*
X200752951Y-72299714D01*
G37*
G36*
X201839283Y-72772035D02*
G01*
X201944705Y-72793433D01*
X202050744Y-72830879D01*
X202139583Y-72874344D01*
X202228851Y-72928953D01*
X202318548Y-72994707D01*
X202398576Y-73078913D01*
X202467933Y-73164833D01*
X202526620Y-73252469D01*
X202584974Y-73364425D01*
X202626655Y-73479061D01*
X202651663Y-73596376D01*
X202660000Y-73716372D01*
X202660000Y-73808183D01*
X202654657Y-73900484D01*
X202634140Y-74011609D01*
X202598237Y-74123131D01*
X202556563Y-74216369D01*
X202504203Y-74309882D01*
X202441158Y-74403671D01*
X202360825Y-74487460D01*
X202278828Y-74560077D01*
X202195167Y-74621522D01*
X202088251Y-74682617D01*
X201978736Y-74726257D01*
X201866620Y-74752441D01*
X201751905Y-74761169D01*
X201661046Y-74761169D01*
X201573667Y-74755597D01*
X201468246Y-74734199D01*
X201362207Y-74696753D01*
X201273368Y-74653288D01*
X201184100Y-74598679D01*
X201094403Y-74532924D01*
X201014375Y-74447998D01*
X200945018Y-74361452D01*
X200886331Y-74273288D01*
X200827977Y-74160806D01*
X200786296Y-74045794D01*
X200761288Y-73928253D01*
X200752951Y-73808183D01*
X200752951Y-73739966D01*
X201221898Y-73739966D01*
X201221898Y-73787666D01*
X201227380Y-73850223D01*
X201255115Y-73952310D01*
X201316761Y-74057419D01*
X201387029Y-74140781D01*
X201479903Y-74210551D01*
X201584512Y-74250722D01*
X201683517Y-74261595D01*
X201729434Y-74261595D01*
X201795445Y-74255115D01*
X201889658Y-74227743D01*
X201908200Y-74217748D01*
X201992085Y-74164138D01*
X202073321Y-74091806D01*
X202133364Y-74010746D01*
X202176631Y-73905146D01*
X202191053Y-73787666D01*
X202191053Y-73739966D01*
X202184695Y-73671763D01*
X202157836Y-73572244D01*
X202096190Y-73468181D01*
X202025922Y-73385649D01*
X201933047Y-73316573D01*
X201828438Y-73276802D01*
X201729434Y-73266037D01*
X201683517Y-73266037D01*
X201617506Y-73272516D01*
X201523293Y-73299889D01*
X201504750Y-73309884D01*
X201420866Y-73363494D01*
X201339630Y-73435826D01*
X201279587Y-73516886D01*
X201236320Y-73622486D01*
X201221898Y-73739966D01*
X200752951Y-73739966D01*
X200752951Y-73716372D01*
X200758294Y-73624957D01*
X200778811Y-73514697D01*
X200814714Y-73403825D01*
X200856388Y-73310962D01*
X200908748Y-73217674D01*
X200971793Y-73123961D01*
X201052126Y-73040172D01*
X201134123Y-72967555D01*
X201217784Y-72906110D01*
X201324700Y-72845014D01*
X201434215Y-72801374D01*
X201546331Y-72775190D01*
X201661046Y-72766462D01*
X201751905Y-72766462D01*
X201839283Y-72772035D01*
G37*
G36*
X200752951Y-75283312D02*
G01*
X200787710Y-75379314D01*
X200849504Y-75462790D01*
X200928918Y-75548612D01*
X201000125Y-75617216D01*
X201363070Y-76004463D01*
X201292619Y-76078154D01*
X201195465Y-76180125D01*
X201108538Y-76271817D01*
X201031838Y-76353232D01*
X200945479Y-76445796D01*
X200877301Y-76520088D01*
X200809123Y-76597265D01*
X200781284Y-76635342D01*
X200752951Y-76725102D01*
X200752951Y-76784086D01*
X200783022Y-76886539D01*
X200855442Y-76958155D01*
X200935157Y-77001560D01*
X202452393Y-77001560D01*
X202551697Y-76968631D01*
X202619730Y-76889329D01*
X202660000Y-76802038D01*
X202660000Y-76725102D01*
X202626912Y-76623840D01*
X202556960Y-76548749D01*
X202542763Y-76537377D01*
X202447661Y-76506963D01*
X202362023Y-76501986D01*
X201572142Y-76501986D01*
X201655948Y-76414006D01*
X201728579Y-76336508D01*
X201803655Y-76254377D01*
X201870700Y-76177441D01*
X201929364Y-76094326D01*
X201929713Y-76091658D01*
X201940949Y-76023441D01*
X201940949Y-75986511D01*
X201911754Y-75885604D01*
X201851540Y-75798658D01*
X201782000Y-75724358D01*
X201733342Y-75679278D01*
X201545275Y-75495143D01*
X201545275Y-75506428D01*
X202471933Y-75500785D01*
X202562844Y-75452893D01*
X202633553Y-75380252D01*
X202660000Y-75283312D01*
X202660000Y-75224327D01*
X202628961Y-75120142D01*
X202554212Y-75048912D01*
X202471933Y-75006853D01*
X200960558Y-75006853D01*
X200862903Y-75038343D01*
X200794503Y-75114180D01*
X200752951Y-75197656D01*
X200752951Y-75283312D01*
G37*
G36*
X186578900Y-64752951D02*
G01*
X186474716Y-64783990D01*
X186403485Y-64858739D01*
X186361427Y-64941018D01*
X186361427Y-66452393D01*
X186393848Y-66551697D01*
X186471927Y-66619730D01*
X186557871Y-66660000D01*
X186637885Y-66660000D01*
X186742070Y-66628961D01*
X186813300Y-66554212D01*
X186855359Y-66471933D01*
X186855359Y-64960558D01*
X186822938Y-64861253D01*
X186744859Y-64793221D01*
X186658914Y-64752951D01*
X186578900Y-64752951D01*
G37*
D12*
D13*
X197145050Y-39959857D02*
X197097431Y-39912238D01*
X197097431Y-39912238D02*
X197002193Y-39864619D01*
X197002193Y-39864619D02*
X196764098Y-39864619D01*
X196764098Y-39864619D02*
X196668860Y-39912238D01*
X196668860Y-39912238D02*
X196621241Y-39959857D01*
X196621241Y-39959857D02*
X196573622Y-40055095D01*
X196573622Y-40055095D02*
X196573622Y-40150333D01*
X196573622Y-40150333D02*
X196621241Y-40293190D01*
X196621241Y-40293190D02*
X197192669Y-40864619D01*
X197192669Y-40864619D02*
X196573622Y-40864619D01*
D12*
D13*
X181954574Y-40293190D02*
X182049812Y-40245571D01*
X182049812Y-40245571D02*
X182097431Y-40197952D01*
X182097431Y-40197952D02*
X182145050Y-40102714D01*
X182145050Y-40102714D02*
X182145050Y-40055095D01*
X182145050Y-40055095D02*
X182097431Y-39959857D01*
X182097431Y-39959857D02*
X182049812Y-39912238D01*
X182049812Y-39912238D02*
X181954574Y-39864619D01*
X181954574Y-39864619D02*
X181764098Y-39864619D01*
X181764098Y-39864619D02*
X181668860Y-39912238D01*
X181668860Y-39912238D02*
X181621241Y-39959857D01*
X181621241Y-39959857D02*
X181573622Y-40055095D01*
X181573622Y-40055095D02*
X181573622Y-40102714D01*
X181573622Y-40102714D02*
X181621241Y-40197952D01*
X181621241Y-40197952D02*
X181668860Y-40245571D01*
X181668860Y-40245571D02*
X181764098Y-40293190D01*
X181764098Y-40293190D02*
X181954574Y-40293190D01*
X181954574Y-40293190D02*
X182049812Y-40340809D01*
X182049812Y-40340809D02*
X182097431Y-40388428D01*
X182097431Y-40388428D02*
X182145050Y-40483666D01*
X182145050Y-40483666D02*
X182145050Y-40674142D01*
X182145050Y-40674142D02*
X182097431Y-40769380D01*
X182097431Y-40769380D02*
X182049812Y-40817000D01*
X182049812Y-40817000D02*
X181954574Y-40864619D01*
X181954574Y-40864619D02*
X181764098Y-40864619D01*
X181764098Y-40864619D02*
X181668860Y-40817000D01*
X181668860Y-40817000D02*
X181621241Y-40769380D01*
X181621241Y-40769380D02*
X181573622Y-40674142D01*
X181573622Y-40674142D02*
X181573622Y-40483666D01*
X181573622Y-40483666D02*
X181621241Y-40388428D01*
X181621241Y-40388428D02*
X181668860Y-40340809D01*
X181668860Y-40340809D02*
X181764098Y-40293190D01*
D12*
D13*
X197145050Y-42959857D02*
X197097431Y-42912238D01*
X197097431Y-42912238D02*
X197002193Y-42864619D01*
X197002193Y-42864619D02*
X196764098Y-42864619D01*
X196764098Y-42864619D02*
X196668860Y-42912238D01*
X196668860Y-42912238D02*
X196621241Y-42959857D01*
X196621241Y-42959857D02*
X196573622Y-43055095D01*
X196573622Y-43055095D02*
X196573622Y-43150333D01*
X196573622Y-43150333D02*
X196621241Y-43293190D01*
X196621241Y-43293190D02*
X197192669Y-43864619D01*
X197192669Y-43864619D02*
X196573622Y-43864619D01*
D12*
D13*
X171573622Y-40864619D02*
X172145050Y-40864619D01*
X171859336Y-40864619D02*
X171859336Y-39864619D01*
X171859336Y-39864619D02*
X171954574Y-40007476D01*
X171954574Y-40007476D02*
X172049812Y-40102714D01*
X172049812Y-40102714D02*
X172145050Y-40150333D01*
X171192669Y-39959857D02*
X171145050Y-39912238D01*
X171145050Y-39912238D02*
X171049812Y-39864619D01*
X171049812Y-39864619D02*
X170811717Y-39864619D01*
X170811717Y-39864619D02*
X170716479Y-39912238D01*
X170716479Y-39912238D02*
X170668860Y-39959857D01*
X170668860Y-39959857D02*
X170621241Y-40055095D01*
X170621241Y-40055095D02*
X170621241Y-40150333D01*
X170621241Y-40150333D02*
X170668860Y-40293190D01*
X170668860Y-40293190D02*
X171240288Y-40864619D01*
X171240288Y-40864619D02*
X170621241Y-40864619D01*
D12*
D13*
X186668860Y-42864619D02*
X186859336Y-42864619D01*
X186859336Y-42864619D02*
X186954574Y-42912238D01*
X186954574Y-42912238D02*
X187002193Y-42959857D01*
X187002193Y-42959857D02*
X187097431Y-43102714D01*
X187097431Y-43102714D02*
X187145050Y-43293190D01*
X187145050Y-43293190D02*
X187145050Y-43674142D01*
X187145050Y-43674142D02*
X187097431Y-43769380D01*
X187097431Y-43769380D02*
X187049812Y-43817000D01*
X187049812Y-43817000D02*
X186954574Y-43864619D01*
X186954574Y-43864619D02*
X186764098Y-43864619D01*
X186764098Y-43864619D02*
X186668860Y-43817000D01*
X186668860Y-43817000D02*
X186621241Y-43769380D01*
X186621241Y-43769380D02*
X186573622Y-43674142D01*
X186573622Y-43674142D02*
X186573622Y-43436047D01*
X186573622Y-43436047D02*
X186621241Y-43340809D01*
X186621241Y-43340809D02*
X186668860Y-43293190D01*
X186668860Y-43293190D02*
X186764098Y-43245571D01*
X186764098Y-43245571D02*
X186954574Y-43245571D01*
X186954574Y-43245571D02*
X187049812Y-43293190D01*
X187049812Y-43293190D02*
X187097431Y-43340809D01*
X187097431Y-43340809D02*
X187145050Y-43436047D01*
D12*
D13*
X161573622Y-40864619D02*
X162145050Y-40864619D01*
X161859336Y-40864619D02*
X161859336Y-39864619D01*
X161859336Y-39864619D02*
X161954574Y-40007476D01*
X161954574Y-40007476D02*
X162049812Y-40102714D01*
X162049812Y-40102714D02*
X162145050Y-40150333D01*
X160716479Y-39864619D02*
X160906955Y-39864619D01*
X160906955Y-39864619D02*
X161002193Y-39912238D01*
X161002193Y-39912238D02*
X161049812Y-39959857D01*
X161049812Y-39959857D02*
X161145050Y-40102714D01*
X161145050Y-40102714D02*
X161192669Y-40293190D01*
X161192669Y-40293190D02*
X161192669Y-40674142D01*
X161192669Y-40674142D02*
X161145050Y-40769380D01*
X161145050Y-40769380D02*
X161097431Y-40817000D01*
X161097431Y-40817000D02*
X161002193Y-40864619D01*
X161002193Y-40864619D02*
X160811717Y-40864619D01*
X160811717Y-40864619D02*
X160716479Y-40817000D01*
X160716479Y-40817000D02*
X160668860Y-40769380D01*
X160668860Y-40769380D02*
X160621241Y-40674142D01*
X160621241Y-40674142D02*
X160621241Y-40436047D01*
X160621241Y-40436047D02*
X160668860Y-40340809D01*
X160668860Y-40340809D02*
X160716479Y-40293190D01*
X160716479Y-40293190D02*
X160811717Y-40245571D01*
X160811717Y-40245571D02*
X161002193Y-40245571D01*
X161002193Y-40245571D02*
X161097431Y-40293190D01*
X161097431Y-40293190D02*
X161145050Y-40340809D01*
X161145050Y-40340809D02*
X161192669Y-40436047D01*
D14*
G36*
X194296540Y-72793221D02*
G01*
X194374619Y-72861253D01*
X194407040Y-72960558D01*
X194407040Y-74471933D01*
X194364981Y-74554212D01*
X194293751Y-74628961D01*
X194189566Y-74660000D01*
X193711021Y-74660000D01*
X193619396Y-74654669D01*
X193508752Y-74634198D01*
X193397350Y-74598374D01*
X193303937Y-74556794D01*
X193209998Y-74504551D01*
X193115533Y-74441646D01*
X193031744Y-74361199D01*
X192959127Y-74279103D01*
X192897682Y-74195358D01*
X192836586Y-74088359D01*
X192792946Y-73978783D01*
X192766762Y-73866632D01*
X192758034Y-73751905D01*
X192758034Y-73683517D01*
X193260686Y-73683517D01*
X193260686Y-73729434D01*
X193266672Y-73801970D01*
X193295163Y-73896428D01*
X193347118Y-73982611D01*
X193422537Y-74060519D01*
X193505857Y-74120711D01*
X193576923Y-74157806D01*
X193684565Y-74179444D01*
X193796897Y-74188580D01*
X193913108Y-74191053D01*
X193907466Y-73734808D01*
X193907466Y-73221898D01*
X193864894Y-73221898D01*
X193794509Y-73223048D01*
X193685515Y-73231134D01*
X193578690Y-73254626D01*
X193559126Y-73264243D01*
X193454780Y-73327075D01*
X193372795Y-73398699D01*
X193313169Y-73479116D01*
X193271866Y-73584049D01*
X193260686Y-73683517D01*
X192758034Y-73683517D01*
X192758034Y-73661046D01*
X192763607Y-73573667D01*
X192785005Y-73468246D01*
X192822451Y-73362207D01*
X192865916Y-73273368D01*
X192920525Y-73184100D01*
X192986279Y-73094403D01*
X193071206Y-73014375D01*
X193157751Y-72945018D01*
X193245916Y-72886331D01*
X193358398Y-72827977D01*
X193473409Y-72786296D01*
X193590951Y-72761288D01*
X193711021Y-72752951D01*
X194210595Y-72752951D01*
X194296540Y-72793221D01*
G37*
G36*
X192400825Y-72793221D02*
G01*
X192478904Y-72861253D01*
X192511325Y-72960558D01*
X192511325Y-74471933D01*
X192469266Y-74554212D01*
X192398036Y-74628961D01*
X192293851Y-74660000D01*
X192232814Y-74660000D01*
X192184879Y-74647297D01*
X192091764Y-74595031D01*
X192039958Y-74533016D01*
X192016751Y-74430167D01*
X192011750Y-74326364D01*
X192021334Y-74116405D01*
X191653226Y-74463628D01*
X191621200Y-74498722D01*
X191539543Y-74575429D01*
X191454193Y-74632385D01*
X191351122Y-74660000D01*
X191292650Y-74660000D01*
X191280344Y-74655758D01*
X191187163Y-74609510D01*
X191116253Y-74533255D01*
X191092616Y-74435296D01*
X191092616Y-74412826D01*
X191104413Y-74346880D01*
X191124512Y-74305145D01*
X191195175Y-74223233D01*
X191270549Y-74148059D01*
X191350633Y-74072847D01*
X191426007Y-74004452D01*
X191347868Y-73946849D01*
X191264846Y-73870830D01*
X191198103Y-73790352D01*
X191139499Y-73687890D01*
X191104336Y-73579005D01*
X191092616Y-73463698D01*
X191092616Y-73400195D01*
X191595267Y-73400195D01*
X191595267Y-73467606D01*
X191611857Y-73504242D01*
X191677063Y-73589575D01*
X191773760Y-73623921D01*
X192011750Y-73623921D01*
X192011750Y-73221898D01*
X191877881Y-73221898D01*
X191759911Y-73227271D01*
X191721323Y-73243757D01*
X191631444Y-73307459D01*
X191595267Y-73400195D01*
X191092616Y-73400195D01*
X191092616Y-73398729D01*
X191095421Y-73349669D01*
X191117860Y-73246610D01*
X191157242Y-73148228D01*
X191207507Y-73056301D01*
X191270459Y-72985203D01*
X191352011Y-72909662D01*
X191436744Y-72848933D01*
X191542622Y-72795610D01*
X191653080Y-72763616D01*
X191768118Y-72752951D01*
X192314880Y-72752951D01*
X192400825Y-72793221D01*
G37*
G36*
X190570986Y-72752951D02*
G01*
X190466801Y-72783990D01*
X190395571Y-72858739D01*
X190353512Y-72941018D01*
X190353512Y-74452393D01*
X190385933Y-74551697D01*
X190464012Y-74619730D01*
X190549957Y-74660000D01*
X190629971Y-74660000D01*
X190734156Y-74628961D01*
X190805386Y-74554212D01*
X190847445Y-74471933D01*
X190847445Y-72960558D01*
X190815024Y-72861253D01*
X190736945Y-72793221D01*
X190651000Y-72752951D01*
X190570986Y-72752951D01*
G37*
G36*
X189824189Y-72752951D02*
G01*
X189726450Y-72782684D01*
X189652831Y-72855499D01*
X189619538Y-72908290D01*
X189601073Y-73010383D01*
X189606715Y-74200823D01*
X189616974Y-74200823D01*
X188902490Y-74191053D01*
X188797797Y-74221850D01*
X188725344Y-74296017D01*
X188681939Y-74377655D01*
X188681939Y-74453370D01*
X188714868Y-74552277D01*
X188794170Y-74619974D01*
X188881461Y-74660000D01*
X189883174Y-74660000D01*
X189987359Y-74628961D01*
X190058589Y-74554212D01*
X190100648Y-74471933D01*
X190100648Y-72960558D01*
X190068227Y-72861253D01*
X189990148Y-72793221D01*
X189904203Y-72752951D01*
X189824189Y-72752951D01*
G37*
G36*
X188160309Y-72752951D02*
G01*
X188062570Y-72782684D01*
X187988951Y-72855499D01*
X187955658Y-72908290D01*
X187937193Y-73010383D01*
X187942835Y-74200823D01*
X187953094Y-74200823D01*
X187238610Y-74191053D01*
X187133917Y-74221850D01*
X187061464Y-74296017D01*
X187018059Y-74377655D01*
X187018059Y-74453370D01*
X187050988Y-74552277D01*
X187130290Y-74619974D01*
X187217581Y-74660000D01*
X188219294Y-74660000D01*
X188323479Y-74628961D01*
X188394709Y-74554212D01*
X188436768Y-74471933D01*
X188436768Y-72960558D01*
X188404347Y-72861253D01*
X188326268Y-72793221D01*
X188240323Y-72752951D01*
X188160309Y-72752951D01*
G37*
G36*
X185186061Y-72758294D02*
G01*
X185296321Y-72778811D01*
X185407193Y-72814714D01*
X185500056Y-72856388D01*
X185593344Y-72908748D01*
X185687057Y-72971793D01*
X185770846Y-73052126D01*
X185843463Y-73134123D01*
X185904908Y-73217784D01*
X185966004Y-73324700D01*
X186009644Y-73434215D01*
X186035828Y-73546331D01*
X186044556Y-73661046D01*
X186044556Y-73751905D01*
X186038983Y-73839283D01*
X186017585Y-73944705D01*
X185980139Y-74050744D01*
X185936674Y-74139583D01*
X185882065Y-74228851D01*
X185816311Y-74318548D01*
X185732105Y-74398576D01*
X185646185Y-74467933D01*
X185558549Y-74526620D01*
X185446593Y-74584974D01*
X185331957Y-74626655D01*
X185214642Y-74651663D01*
X185094646Y-74660000D01*
X185002835Y-74660000D01*
X184910534Y-74654657D01*
X184799409Y-74634140D01*
X184687887Y-74598237D01*
X184594649Y-74556563D01*
X184501136Y-74504203D01*
X184407347Y-74441158D01*
X184323558Y-74360825D01*
X184250941Y-74278828D01*
X184189496Y-74195167D01*
X184128401Y-74088251D01*
X184084761Y-73978736D01*
X184058577Y-73866620D01*
X184049849Y-73751905D01*
X184049849Y-73683517D01*
X184549423Y-73683517D01*
X184549423Y-73729434D01*
X184555902Y-73795445D01*
X184583275Y-73889658D01*
X184593270Y-73908200D01*
X184646880Y-73992085D01*
X184719212Y-74073321D01*
X184800272Y-74133364D01*
X184905872Y-74176631D01*
X185023352Y-74191053D01*
X185071052Y-74191053D01*
X185139255Y-74184695D01*
X185238774Y-74157836D01*
X185342837Y-74096190D01*
X185425369Y-74025922D01*
X185494445Y-73933047D01*
X185534216Y-73828438D01*
X185544981Y-73729434D01*
X185544981Y-73683517D01*
X185538502Y-73617506D01*
X185511129Y-73523293D01*
X185501134Y-73504750D01*
X185447524Y-73420866D01*
X185375192Y-73339630D01*
X185294132Y-73279587D01*
X185188532Y-73236320D01*
X185071052Y-73221898D01*
X185023352Y-73221898D01*
X184960795Y-73227380D01*
X184858708Y-73255115D01*
X184753599Y-73316761D01*
X184670237Y-73387029D01*
X184600467Y-73479903D01*
X184560296Y-73584512D01*
X184549423Y-73683517D01*
X184049849Y-73683517D01*
X184049849Y-73661046D01*
X184055421Y-73573667D01*
X184076819Y-73468246D01*
X184114265Y-73362207D01*
X184157730Y-73273368D01*
X184212339Y-73184100D01*
X184278094Y-73094403D01*
X184363020Y-73014375D01*
X184449566Y-72945018D01*
X184537730Y-72886331D01*
X184650212Y-72827977D01*
X184765224Y-72786296D01*
X184882765Y-72761288D01*
X185002835Y-72752951D01*
X185094646Y-72752951D01*
X185186061Y-72758294D01*
G37*
G36*
X183527706Y-72752951D02*
G01*
X183423521Y-72784151D01*
X183352291Y-72859289D01*
X183310232Y-72941995D01*
X183310232Y-73789030D01*
X183303115Y-73900340D01*
X183277550Y-74003396D01*
X183226564Y-74088532D01*
X183161489Y-74136831D01*
X183066520Y-74183428D01*
X183010693Y-74191053D01*
X182951196Y-74191053D01*
X182850126Y-74171972D01*
X182762982Y-74114727D01*
X182696457Y-74030578D01*
X182676789Y-73995659D01*
X182657811Y-73905289D01*
X182657811Y-73061186D01*
X182649124Y-72955337D01*
X182613831Y-72856428D01*
X182535644Y-72786727D01*
X182518812Y-72780307D01*
X182432644Y-72752951D01*
X182375711Y-72752951D01*
X182271018Y-72783990D01*
X182198564Y-72858739D01*
X182155159Y-72941018D01*
X182155159Y-73904312D01*
X182164513Y-74017248D01*
X182192576Y-74125247D01*
X182239346Y-74228308D01*
X182304825Y-74326432D01*
X182370678Y-74401377D01*
X182448504Y-74473161D01*
X182538303Y-74541786D01*
X182631772Y-74587848D01*
X182735588Y-74626636D01*
X182836198Y-74650649D01*
X182945553Y-74660000D01*
X183013771Y-74660000D01*
X183131885Y-74651067D01*
X183244840Y-74624269D01*
X183352637Y-74579607D01*
X183455274Y-74517079D01*
X183552752Y-74436687D01*
X183627020Y-74359510D01*
X183680553Y-74294124D01*
X183728718Y-74204344D01*
X183769278Y-74104831D01*
X183794387Y-74008614D01*
X183804165Y-73904312D01*
X183804165Y-72960558D01*
X183771744Y-72861253D01*
X183693665Y-72793221D01*
X183607720Y-72752951D01*
X183527706Y-72752951D01*
G37*
G36*
X180479482Y-72752951D02*
G01*
X180375369Y-72783425D01*
X180303009Y-72856816D01*
X180259444Y-72937599D01*
X180259444Y-73012337D01*
X180292288Y-73110135D01*
X180371387Y-73177018D01*
X180458453Y-73216524D01*
X180582577Y-73221898D01*
X180832364Y-73221898D01*
X180832364Y-74294612D01*
X180835334Y-74396326D01*
X180847880Y-74494403D01*
X180894426Y-74577934D01*
X180980403Y-74637285D01*
X181047274Y-74660000D01*
X181114978Y-74660000D01*
X181217593Y-74628961D01*
X181288950Y-74554212D01*
X181331939Y-74471933D01*
X181338094Y-74428457D01*
X181332452Y-74387424D01*
X181332452Y-73221898D01*
X181587368Y-73221898D01*
X181697804Y-73213746D01*
X181800957Y-73180630D01*
X181873566Y-73107266D01*
X181880239Y-73091472D01*
X181908450Y-73013314D01*
X181908450Y-72957138D01*
X181876028Y-72859341D01*
X181797949Y-72792458D01*
X181712005Y-72752951D01*
X180479482Y-72752951D01*
G37*
G36*
X178425907Y-72758294D02*
G01*
X178536167Y-72778811D01*
X178647040Y-72814714D01*
X178739902Y-72856388D01*
X178833190Y-72908748D01*
X178926904Y-72971793D01*
X179010692Y-73052126D01*
X179083309Y-73134123D01*
X179144754Y-73217784D01*
X179205850Y-73324700D01*
X179249490Y-73434215D01*
X179275674Y-73546331D01*
X179284402Y-73661046D01*
X179284402Y-73751905D01*
X179278830Y-73839283D01*
X179257432Y-73944705D01*
X179219985Y-74050744D01*
X179176521Y-74139583D01*
X179121911Y-74228851D01*
X179056157Y-74318548D01*
X178971952Y-74398576D01*
X178886031Y-74467933D01*
X178798396Y-74526620D01*
X178686440Y-74584974D01*
X178571804Y-74626655D01*
X178454488Y-74651663D01*
X178334493Y-74660000D01*
X178242682Y-74660000D01*
X178150381Y-74654657D01*
X178039255Y-74634140D01*
X177927734Y-74598237D01*
X177834496Y-74556563D01*
X177740982Y-74504203D01*
X177647193Y-74441158D01*
X177563405Y-74360825D01*
X177490788Y-74278828D01*
X177429343Y-74195167D01*
X177368247Y-74088251D01*
X177324607Y-73978736D01*
X177298423Y-73866620D01*
X177289695Y-73751905D01*
X177289695Y-73683517D01*
X177789269Y-73683517D01*
X177789269Y-73729434D01*
X177795749Y-73795445D01*
X177823122Y-73889658D01*
X177833116Y-73908200D01*
X177886726Y-73992085D01*
X177959059Y-74073321D01*
X178040119Y-74133364D01*
X178145719Y-74176631D01*
X178263198Y-74191053D01*
X178310899Y-74191053D01*
X178379102Y-74184695D01*
X178478620Y-74157836D01*
X178582683Y-74096190D01*
X178665216Y-74025922D01*
X178734292Y-73933047D01*
X178774063Y-73828438D01*
X178784828Y-73729434D01*
X178784828Y-73683517D01*
X178778348Y-73617506D01*
X178750976Y-73523293D01*
X178740981Y-73504750D01*
X178687371Y-73420866D01*
X178615039Y-73339630D01*
X178533979Y-73279587D01*
X178428378Y-73236320D01*
X178310899Y-73221898D01*
X178263198Y-73221898D01*
X178200642Y-73227380D01*
X178098554Y-73255115D01*
X177993446Y-73316761D01*
X177910084Y-73387029D01*
X177840314Y-73479903D01*
X177800143Y-73584512D01*
X177789269Y-73683517D01*
X177289695Y-73683517D01*
X177289695Y-73661046D01*
X177295268Y-73573667D01*
X177316666Y-73468246D01*
X177354112Y-73362207D01*
X177397577Y-73273368D01*
X177452186Y-73184100D01*
X177517940Y-73094403D01*
X177602867Y-73014375D01*
X177689412Y-72945018D01*
X177777577Y-72886331D01*
X177890059Y-72827977D01*
X178005070Y-72786296D01*
X178122611Y-72761288D01*
X178242682Y-72752951D01*
X178334493Y-72752951D01*
X178425907Y-72758294D01*
G37*
G36*
X176767553Y-72752951D02*
G01*
X176663368Y-72784151D01*
X176592138Y-72859289D01*
X176550079Y-72941995D01*
X176550079Y-73789030D01*
X176542961Y-73900340D01*
X176517396Y-74003396D01*
X176466411Y-74088532D01*
X176401335Y-74136831D01*
X176306367Y-74183428D01*
X176250540Y-74191053D01*
X176191042Y-74191053D01*
X176089973Y-74171972D01*
X176002828Y-74114727D01*
X175936304Y-74030578D01*
X175916635Y-73995659D01*
X175897657Y-73905289D01*
X175897657Y-73061186D01*
X175888970Y-72955337D01*
X175853677Y-72856428D01*
X175775491Y-72786727D01*
X175758659Y-72780307D01*
X175672490Y-72752951D01*
X175615557Y-72752951D01*
X175510864Y-72783990D01*
X175438411Y-72858739D01*
X175395006Y-72941018D01*
X175395006Y-73904312D01*
X175404360Y-74017248D01*
X175432422Y-74125247D01*
X175479193Y-74228308D01*
X175544671Y-74326432D01*
X175610524Y-74401377D01*
X175688350Y-74473161D01*
X175778149Y-74541786D01*
X175871618Y-74587848D01*
X175975434Y-74626636D01*
X176076045Y-74650649D01*
X176185400Y-74660000D01*
X176253617Y-74660000D01*
X176371732Y-74651067D01*
X176484687Y-74624269D01*
X176592483Y-74579607D01*
X176695120Y-74517079D01*
X176792598Y-74436687D01*
X176866866Y-74359510D01*
X176920400Y-74294124D01*
X176968565Y-74204344D01*
X177009125Y-74104831D01*
X177034233Y-74008614D01*
X177044011Y-73904312D01*
X177044011Y-72960558D01*
X177011590Y-72861253D01*
X176933511Y-72793221D01*
X176847567Y-72752951D01*
X176767553Y-72752951D01*
G37*
G36*
X173719329Y-72752951D02*
G01*
X173615216Y-72783425D01*
X173542856Y-72856816D01*
X173499290Y-72937599D01*
X173499290Y-73012337D01*
X173532135Y-73110135D01*
X173611233Y-73177018D01*
X173698299Y-73216524D01*
X173822424Y-73221898D01*
X174072211Y-73221898D01*
X174072211Y-74294612D01*
X174075181Y-74396326D01*
X174087726Y-74494403D01*
X174134273Y-74577934D01*
X174220249Y-74637285D01*
X174287120Y-74660000D01*
X174354824Y-74660000D01*
X174457440Y-74628961D01*
X174528797Y-74554212D01*
X174571785Y-74471933D01*
X174577940Y-74428457D01*
X174572298Y-74387424D01*
X174572298Y-73221898D01*
X174827214Y-73221898D01*
X174937650Y-73213746D01*
X175040803Y-73180630D01*
X175113412Y-73107266D01*
X175120086Y-73091472D01*
X175148296Y-73013314D01*
X175148296Y-72957138D01*
X175115875Y-72859341D01*
X175037796Y-72792458D01*
X174951851Y-72752951D01*
X173719329Y-72752951D01*
G37*
G36*
X173142081Y-72793221D02*
G01*
X173220160Y-72861253D01*
X173252581Y-72960558D01*
X173252581Y-74471933D01*
X173210522Y-74554212D01*
X173139292Y-74628961D01*
X173035107Y-74660000D01*
X172974071Y-74660000D01*
X172926136Y-74646948D01*
X172833020Y-74593565D01*
X172778323Y-74522319D01*
X172758007Y-74424488D01*
X172753006Y-74318060D01*
X172753006Y-74097264D01*
X172509374Y-74097264D01*
X172459055Y-74094676D01*
X172352706Y-74073973D01*
X172250483Y-74037638D01*
X172154440Y-73991263D01*
X172079307Y-73931522D01*
X171999478Y-73854035D01*
X171935302Y-73773423D01*
X171878952Y-73672564D01*
X171845142Y-73567205D01*
X171833872Y-73457348D01*
X171833872Y-73402149D01*
X172336523Y-73402149D01*
X172336523Y-73470537D01*
X172353113Y-73507517D01*
X172418320Y-73593649D01*
X172515016Y-73628318D01*
X172753006Y-73628318D01*
X172753006Y-73221898D01*
X172619137Y-73221898D01*
X172501168Y-73227759D01*
X172462579Y-73244269D01*
X172372700Y-73308361D01*
X172336523Y-73402149D01*
X171833872Y-73402149D01*
X171833872Y-73392868D01*
X171836689Y-73344277D01*
X171859229Y-73242229D01*
X171898787Y-73144839D01*
X171949276Y-73053859D01*
X172012108Y-72983333D01*
X172093532Y-72908400D01*
X172178163Y-72848160D01*
X172283950Y-72795266D01*
X172394354Y-72763530D01*
X172509374Y-72752951D01*
X173056136Y-72752951D01*
X173142081Y-72793221D01*
G37*
G36*
X171312242Y-72752951D02*
G01*
X171208057Y-72784151D01*
X171136827Y-72859289D01*
X171094768Y-72941995D01*
X171094768Y-73789030D01*
X171087651Y-73900340D01*
X171062085Y-74003396D01*
X171011100Y-74088532D01*
X170946025Y-74136831D01*
X170851056Y-74183428D01*
X170795229Y-74191053D01*
X170735731Y-74191053D01*
X170634662Y-74171972D01*
X170547518Y-74114727D01*
X170480993Y-74030578D01*
X170461325Y-73995659D01*
X170442347Y-73905289D01*
X170442347Y-73061186D01*
X170433660Y-72955337D01*
X170398367Y-72856428D01*
X170320180Y-72786727D01*
X170303348Y-72780307D01*
X170217179Y-72752951D01*
X170160246Y-72752951D01*
X170055554Y-72783990D01*
X169983100Y-72858739D01*
X169939695Y-72941018D01*
X169939695Y-73904312D01*
X169949049Y-74017248D01*
X169977112Y-74125247D01*
X170023882Y-74228308D01*
X170089361Y-74326432D01*
X170155214Y-74401377D01*
X170233040Y-74473161D01*
X170322839Y-74541786D01*
X170416308Y-74587848D01*
X170520124Y-74626636D01*
X170620734Y-74650649D01*
X170730089Y-74660000D01*
X170798306Y-74660000D01*
X170916421Y-74651067D01*
X171029376Y-74624269D01*
X171137173Y-74579607D01*
X171239810Y-74517079D01*
X171337288Y-74436687D01*
X171411555Y-74359510D01*
X171465089Y-74294124D01*
X171513254Y-74204344D01*
X171553814Y-74104831D01*
X171578923Y-74008614D01*
X171588701Y-73904312D01*
X171588701Y-72960558D01*
X171556280Y-72861253D01*
X171478201Y-72793221D01*
X171392256Y-72752951D01*
X171312242Y-72752951D01*
G37*
G36*
X168264018Y-72752951D02*
G01*
X168159905Y-72783425D01*
X168087545Y-72856816D01*
X168043980Y-72937599D01*
X168043980Y-73012337D01*
X168076824Y-73110135D01*
X168155922Y-73177018D01*
X168242989Y-73216524D01*
X168367113Y-73221898D01*
X168616900Y-73221898D01*
X168616900Y-74294612D01*
X168619870Y-74396326D01*
X168632416Y-74494403D01*
X168678962Y-74577934D01*
X168764939Y-74637285D01*
X168831810Y-74660000D01*
X168899514Y-74660000D01*
X169002129Y-74628961D01*
X169073486Y-74554212D01*
X169116475Y-74471933D01*
X169122630Y-74428457D01*
X169116988Y-74387424D01*
X169116988Y-73221898D01*
X169371904Y-73221898D01*
X169482340Y-73213746D01*
X169585493Y-73180630D01*
X169658102Y-73107266D01*
X169664775Y-73091472D01*
X169692985Y-73013314D01*
X169692985Y-72957138D01*
X169660564Y-72859341D01*
X169582485Y-72792458D01*
X169496541Y-72752951D01*
X168264018Y-72752951D01*
G37*
G36*
X167222298Y-72752951D02*
G01*
X167124845Y-72752951D01*
X167006279Y-72759117D01*
X166904086Y-72777612D01*
X166805554Y-72814775D01*
X166720234Y-72877797D01*
X166681691Y-72928318D01*
X166656657Y-73023086D01*
X166656558Y-73028457D01*
X166656558Y-73045554D01*
X166681226Y-73143655D01*
X166755227Y-73225708D01*
X166852469Y-73280908D01*
X166865313Y-73286378D01*
X166925323Y-73298590D01*
X167031855Y-73274653D01*
X167138765Y-73242825D01*
X167177675Y-73230690D01*
X167215117Y-73230690D01*
X167296406Y-73293255D01*
X167297696Y-73308360D01*
X167297696Y-73330830D01*
X167218806Y-73402722D01*
X167112217Y-73448174D01*
X167002823Y-73485509D01*
X166938659Y-73505219D01*
X166827542Y-73557300D01*
X166735258Y-73618897D01*
X166661808Y-73690011D01*
X166598527Y-73787911D01*
X166562367Y-73899515D01*
X166552951Y-74002986D01*
X166552951Y-74059651D01*
X166562330Y-74164866D01*
X166590467Y-74262830D01*
X166637363Y-74353543D01*
X166703017Y-74437006D01*
X166787429Y-74513217D01*
X166890600Y-74582178D01*
X166937120Y-74607732D01*
X167039189Y-74641573D01*
X167144375Y-74658723D01*
X167180752Y-74660000D01*
X167234095Y-74660000D01*
X167341620Y-74652099D01*
X167447427Y-74628397D01*
X167551517Y-74588893D01*
X167653888Y-74533589D01*
X167711614Y-74494891D01*
X167775128Y-74414411D01*
X167797270Y-74342484D01*
X167797270Y-74285819D01*
X167768058Y-74191778D01*
X167689957Y-74118005D01*
X167589542Y-74066489D01*
X167526454Y-74066489D01*
X167426844Y-74099163D01*
X167326992Y-74142916D01*
X167242302Y-74182260D01*
X167193062Y-74182260D01*
X167097741Y-74138175D01*
X167052525Y-74057208D01*
X167052525Y-74014221D01*
X167103591Y-73924439D01*
X167194377Y-73875957D01*
X167292254Y-73845566D01*
X167393324Y-73824149D01*
X167415665Y-73820293D01*
X167525600Y-73775015D01*
X167616902Y-73719170D01*
X167701869Y-73638210D01*
X167760004Y-73542033D01*
X167791308Y-73430641D01*
X167797270Y-73347927D01*
X167797270Y-73302498D01*
X167785423Y-73190207D01*
X167749882Y-73086709D01*
X167690647Y-72992004D01*
X167607718Y-72906092D01*
X167520511Y-72841215D01*
X167460288Y-72805219D01*
X167360636Y-72771378D01*
X167257861Y-72754227D01*
X167222298Y-72752951D01*
G37*
D12*
D13*
X166573622Y-43864619D02*
X167145050Y-43864619D01*
X166859336Y-43864619D02*
X166859336Y-42864619D01*
X166859336Y-42864619D02*
X166954574Y-43007476D01*
X166954574Y-43007476D02*
X167049812Y-43102714D01*
X167049812Y-43102714D02*
X167145050Y-43150333D01*
X166192669Y-42959857D02*
X166145050Y-42912238D01*
X166145050Y-42912238D02*
X166049812Y-42864619D01*
X166049812Y-42864619D02*
X165811717Y-42864619D01*
X165811717Y-42864619D02*
X165716479Y-42912238D01*
X165716479Y-42912238D02*
X165668860Y-42959857D01*
X165668860Y-42959857D02*
X165621241Y-43055095D01*
X165621241Y-43055095D02*
X165621241Y-43150333D01*
X165621241Y-43150333D02*
X165668860Y-43293190D01*
X165668860Y-43293190D02*
X166240288Y-43864619D01*
X166240288Y-43864619D02*
X165621241Y-43864619D01*
D12*
D13*
X191668860Y-43197952D02*
X191668860Y-43864619D01*
X191906955Y-42817000D02*
X192145050Y-43531285D01*
X192145050Y-43531285D02*
X191526003Y-43531285D01*
D15*
%TO.P,REF\u002A\u002A,63*%
%TO.N,N/C*%
X158850000Y-30040000D03*
%TO.P,REF\u002A\u002A,64*%
X161390000Y-30040000D03*
%TO.P,REF\u002A\u002A,65*%
X163930000Y-30040000D03*
%TO.P,REF\u002A\u002A,66*%
X166470000Y-30040000D03*
%TO.P,REF\u002A\u002A,67*%
X169010000Y-30040000D03*
%TO.P,REF\u002A\u002A,68*%
X171550000Y-30040000D03*
%TO.P,REF\u002A\u002A,69*%
X174090000Y-30040000D03*
%TO.P,REF\u002A\u002A,70*%
X176630000Y-30040000D03*
%TO.P,REF\u002A\u002A,71*%
X179170000Y-30040000D03*
%TO.P,REF\u002A\u002A,72*%
X181710000Y-30040000D03*
%TO.P,REF\u002A\u002A,73*%
X184250000Y-30040000D03*
%TO.P,REF\u002A\u002A,74*%
X186790000Y-30040000D03*
%TO.P,REF\u002A\u002A,75*%
X189330000Y-30040000D03*
%TO.P,REF\u002A\u002A,76*%
X191870000Y-30040000D03*
%TO.P,REF\u002A\u002A,77*%
X194410000Y-30040000D03*
%TO.P,REF\u002A\u002A,78*%
X196950000Y-30040000D03*
%TO.P,REF\u002A\u002A,79*%
X199490000Y-30040000D03*
%TO.P,REF\u002A\u002A,80*%
X202030000Y-30040000D03*
%TD*%
D16*
%TO.P,REF\u002A\u002A,1*%
%TO.N,N/C*%
X183900000Y-64490000D03*
D17*
%TO.P,REF\u002A\u002A,2*%
X183900000Y-61950000D03*
%TO.P,REF\u002A\u002A,3*%
X183900000Y-59410000D03*
%TO.P,REF\u002A\u002A,4*%
X183900000Y-56870000D03*
%TO.P,REF\u002A\u002A,5*%
X183900000Y-54330000D03*
%TO.P,REF\u002A\u002A,6*%
X183900000Y-51790000D03*
%TO.P,REF\u002A\u002A,7*%
X183900000Y-49250000D03*
%TO.P,REF\u002A\u002A,8*%
X183900000Y-46710000D03*
%TO.P,REF\u002A\u002A,9*%
X176280000Y-46710000D03*
%TO.P,REF\u002A\u002A,10*%
X176280000Y-49250000D03*
%TO.P,REF\u002A\u002A,11*%
X176280000Y-51790000D03*
%TO.P,REF\u002A\u002A,12*%
X176280000Y-54330000D03*
%TO.P,REF\u002A\u002A,13*%
X176280000Y-56870000D03*
%TO.P,REF\u002A\u002A,14*%
X176280000Y-59410000D03*
%TO.P,REF\u002A\u002A,15*%
X176280000Y-61950000D03*
%TO.P,REF\u002A\u002A,16*%
X176280000Y-64490000D03*
%TD*%
D18*
%TO.N,*%
X179170000Y-42500000D03*
X161390000Y-38000000D03*
X194500000Y-42500000D03*
X184250000Y-42500000D03*
X174090000Y-42500000D03*
X166470000Y-38000000D03*
X176630000Y-38000000D03*
X158850000Y-42500000D03*
X189500000Y-42500000D03*
X164000000Y-42500000D03*
X202030000Y-38000000D03*
X171550000Y-38000000D03*
X191870000Y-38000000D03*
X169010000Y-42500000D03*
X196950000Y-38000000D03*
X181710000Y-38000000D03*
X199490000Y-42500000D03*
X186790000Y-38000000D03*
%TD*%
D19*
%TO.N,*%
X174630000Y-46630000D02*
X174630000Y-46260000D01*
X158850000Y-31040000D02*
X158850000Y-43287393D01*
X158850000Y-43287393D02*
X160562607Y-45000000D01*
X160562607Y-45000000D02*
X182270000Y-45000000D01*
X182270000Y-45000000D02*
X182270000Y-46730000D01*
X189330000Y-42330000D02*
X189500000Y-42500000D01*
X177730000Y-45000000D02*
X177730000Y-67480000D01*
X184250000Y-31040000D02*
X184250000Y-42500000D01*
X196950000Y-31040000D02*
X196950000Y-38000000D01*
X177730000Y-67480000D02*
X182260000Y-67480000D01*
X202030000Y-37500000D02*
X202030000Y-31040000D01*
X179170000Y-31040000D02*
X179170000Y-42500000D01*
X186790000Y-31040000D02*
X186790000Y-38000000D01*
X174090000Y-31040000D02*
X174090000Y-42500000D01*
X199490000Y-31040000D02*
X199490000Y-42500000D01*
X185320000Y-68750000D02*
X185320000Y-45180000D01*
X163930000Y-42430000D02*
X163930000Y-31040000D01*
X166470000Y-31040000D02*
X166470000Y-38000000D01*
X171550000Y-31040000D02*
X171550000Y-38000000D01*
X202000000Y-45000000D02*
X202000000Y-37530000D01*
X174630000Y-68770000D02*
X185300000Y-68770000D01*
X182260000Y-67480000D02*
X182260000Y-46740000D01*
X185320000Y-45180000D02*
X185500000Y-45000000D01*
X169010000Y-31040000D02*
X169010000Y-42500000D01*
X194410000Y-31040000D02*
X194410000Y-42410000D01*
X185500000Y-45000000D02*
X202000000Y-45000000D01*
X176630000Y-31040000D02*
X176630000Y-38000000D01*
X191870000Y-31040000D02*
X191870000Y-38000000D01*
X185300000Y-68770000D02*
X185320000Y-68750000D01*
X181710000Y-31040000D02*
X181710000Y-38000000D01*
X189330000Y-31040000D02*
X189330000Y-42330000D01*
X202000000Y-37530000D02*
X202030000Y-37500000D01*
X161390000Y-31040000D02*
X161390000Y-38000000D01*
X164000000Y-42500000D02*
X163930000Y-42430000D01*
X194410000Y-42410000D02*
X194500000Y-42500000D01*
X174630000Y-68770000D02*
X174630000Y-46630000D01*
%TD*%
M02*
